<?xml version="1.0" standalone="no"?>
<!DOCTYPE svg PUBLIC "-//W3C//DTD SVG 20010904//EN"
 "http://www.w3.org/TR/2001/REC-SVG-20010904/DTD/svg10.dtd">
<svg version="1.0" xmlns="http://www.w3.org/2000/svg"
 width="840.000000pt" height="905.000000pt" viewBox="0 0 840.000000 905.000000"
 preserveAspectRatio="xMidYMid meet">

<g transform="translate(0.000000,905.000000) scale(0.100000,-0.100000)"
fill="#000000" stroke="none">
<path d="M4119 8599 c-20 -20 -26 -21 -53 -11 -20 8 -32 9 -34 2 -2 -5 -21
-10 -43 -10 -28 0 -39 -4 -39 -15 0 -8 -3 -14 -7 -13 -12 3 -77 -13 -88 -22
-17 -12 -55 -19 -55 -9 0 5 -9 1 -20 -8 -20 -17 -46 -24 -92 -24 -18 0 -28 -5
-28 -14 0 -18 -36 -38 -70 -40 -65 -4 -63 -4 -49 -22 13 -15 11 -16 -14 -11
-19 4 -30 0 -37 -11 -6 -10 -10 -11 -10 -3 0 18 -20 15 -20 -4 0 -10 -5 -14
-15 -10 -15 5 -136 -51 -143 -66 -2 -5 -10 -8 -18 -8 -8 0 -11 -6 -8 -15 7
-17 -11 -21 -21 -5 -12 19 -26 10 -21 -12 3 -13 3 -17 0 -10 -8 17 -27 15 -21
-3 4 -8 2 -17 -3 -20 -4 -3 -10 0 -12 6 -2 7 -16 5 -40 -7 -21 -9 -35 -21 -32
-26 3 -4 -4 -8 -15 -8 -30 0 -51 -11 -51 -27 0 -7 -6 -13 -12 -12 -27 3 -39
-1 -32 -12 4 -7 1 -10 -7 -7 -8 3 -20 -2 -27 -9 -8 -8 -23 -11 -33 -8 -16 5
-19 1 -19 -23 0 -36 -37 -52 -57 -25 -12 15 -13 15 -14 -3 -1 -10 -1 -22 0
-26 2 -12 -14 -9 -28 5 -11 10 -13 9 -9 -3 3 -8 -4 -23 -15 -32 -22 -20 -31
-23 -22 -8 3 6 0 10 -8 10 -8 0 -17 -7 -21 -15 -3 -8 -13 -15 -21 -15 -9 0
-13 -5 -10 -11 4 -5 4 -22 0 -36 -4 -19 -9 -23 -18 -14 -14 14 -57 15 -57 0 0
-5 4 -8 9 -4 6 3 25 -1 43 -9 l33 -14 -36 -1 c-20 -1 -50 -4 -67 -7 -26 -5
-30 -9 -22 -24 15 -28 -22 -57 -55 -42 -21 10 -25 9 -25 -3 0 -8 5 -15 12 -15
6 0 8 -3 5 -6 -4 -4 -13 -1 -22 6 -13 10 -15 9 -15 -9 0 -11 -4 -21 -10 -21
-5 0 -10 5 -10 12 0 9 -3 9 -12 0 -7 -7 -18 -12 -25 -12 -20 0 -58 -38 -58
-58 0 -12 -7 -16 -23 -14 -13 2 -25 -3 -28 -12 -3 -9 -12 -12 -22 -9 -11 4 -8
-2 7 -15 13 -12 33 -22 45 -22 17 0 18 -2 6 -10 -18 -11 -51 -3 -65 17 -8 11
-17 12 -38 4 -15 -6 -27 -15 -27 -21 0 -6 4 -9 9 -6 5 3 12 -1 15 -10 9 -23 8
-24 -13 -24 -11 0 -23 -5 -26 -10 -4 -6 -14 -10 -23 -9 -32 3 -40 -1 -38 -18
0 -10 -6 -18 -14 -18 -8 0 -13 7 -12 15 5 19 -8 7 -22 -22 -6 -13 -20 -25 -31
-27 -21 -4 -46 -31 -39 -42 2 -4 -3 -10 -12 -13 -12 -4 -15 -2 -10 9 3 9 0 15
-9 15 -19 0 -19 -15 1 -45 10 -15 12 -25 5 -25 -6 0 -11 3 -11 8 0 4 -17 7
-37 7 -28 0 -46 -7 -68 -28 -25 -24 -26 -28 -9 -23 16 5 24 0 33 -21 l13 -28
9 23 c12 31 31 23 34 -13 2 -17 1 -24 -2 -18 -3 10 -10 10 -24 2 -15 -7 -24
-7 -33 0 -20 16 -46 2 -43 -22 1 -12 7 -26 12 -30 6 -5 3 -6 -8 -3 -12 4 -21
-2 -29 -19 -6 -14 -15 -25 -20 -25 -5 0 -6 5 -2 11 4 8 -1 9 -17 4 -22 -7 -22
-7 -6 9 9 10 15 22 12 27 -4 5 0 9 7 9 7 0 19 9 26 20 10 17 10 20 -4 20 -8 0
-12 -5 -9 -10 7 -11 -42 -33 -55 -25 -4 3 -14 -2 -21 -11 -10 -13 -10 -17 2
-25 11 -7 9 -9 -8 -9 -23 0 -27 -8 -23 -45 2 -16 0 -17 -14 -6 -8 7 -18 21
-21 31 -3 10 -12 21 -20 24 -14 5 -11 -16 5 -39 13 -18 4 -60 -13 -63 -10 -2
-17 3 -17 12 0 9 -7 16 -15 16 -22 0 -18 -31 5 -37 11 -3 20 -12 20 -20 0 -11
-7 -13 -25 -9 -20 5 -25 3 -25 -14 0 -24 -13 -26 -30 -5 -15 18 -30 20 -30 3
0 -6 -10 -22 -22 -35 -15 -17 -18 -23 -7 -23 9 -1 7 -7 -8 -19 -20 -16 -21
-21 -8 -31 12 -10 15 -10 15 3 0 10 6 13 20 10 11 -3 20 -10 20 -15 0 -6 -7
-8 -15 -4 -8 3 -19 -2 -24 -12 -8 -12 -10 -13 -11 -3 0 8 -3 11 -6 8 -4 -3
-15 -2 -26 4 -13 7 -23 7 -32 0 -6 -6 -22 -8 -34 -4 -23 6 -31 -12 -9 -20 10
-4 10 -7 0 -18 -7 -7 -13 -20 -13 -28 1 -13 2 -13 11 2 5 9 16 17 23 17 8 0
16 10 19 22 4 12 9 19 13 15 11 -10 -16 -55 -43 -73 -23 -14 -26 -14 -39 3
-12 16 -13 15 -14 -16 0 -27 -3 -32 -17 -27 -10 4 -24 -2 -36 -14 -23 -26 -18
-34 15 -21 19 7 25 6 25 -4 0 -8 -4 -12 -8 -9 -5 3 -16 -4 -26 -16 -10 -11
-23 -20 -29 -20 -18 0 -37 -27 -24 -35 5 -3 10 -15 10 -26 0 -12 10 -29 22
-38 13 -11 19 -24 15 -34 -7 -18 -27 -23 -27 -7 0 6 -8 10 -18 10 -10 0 -19
-7 -19 -15 0 -8 4 -12 9 -9 16 10 8 -9 -9 -22 -22 -16 -47 -18 -37 -3 5 8 1 8
-14 0 -16 -9 -21 -8 -24 4 -2 10 -7 7 -15 -10 -6 -14 -8 -23 -3 -20 4 3 10 -1
13 -9 9 -22 -24 -29 -39 -9 -12 16 -13 16 -14 -10 0 -16 -4 -26 -8 -23 -10 6
-82 -59 -82 -74 0 -8 6 -8 20 0 16 9 20 8 20 -5 0 -8 -6 -15 -13 -15 -19 0
-77 -50 -77 -66 0 -8 4 -14 9 -14 10 0 21 -36 13 -44 -3 -4 -14 2 -24 11 -19
17 -19 16 -12 -12 4 -17 3 -27 -1 -23 -4 4 -14 1 -21 -7 -18 -18 -18 -25 1
-25 8 0 15 -5 15 -11 0 -5 5 -7 12 -3 8 5 9 0 5 -17 -4 -13 -7 -28 -7 -32 0
-5 -10 -7 -22 -5 -11 2 -23 -3 -25 -9 -3 -8 4 -13 16 -13 24 0 28 -15 6 -24
-8 -3 -14 -9 -13 -13 1 -4 -4 -18 -11 -31 -9 -16 -9 -27 -2 -36 6 -7 9 -22 6
-34 -2 -12 0 -22 6 -22 18 0 9 -39 -11 -45 -25 -8 -24 -56 2 -63 10 -2 18 -11
18 -19 0 -10 -4 -11 -19 -3 -11 5 -22 15 -24 22 -4 10 -6 10 -6 1 -1 -7 -6
-13 -12 -13 -8 0 -8 4 -1 13 6 7 9 26 6 41 -3 16 -1 25 5 22 5 -4 12 -2 16 4
3 5 -1 10 -9 10 -18 0 -21 21 -6 36 5 5 6 15 0 24 -7 11 -12 12 -20 4 -8 -8
-8 -14 -2 -18 15 -9 -9 -54 -33 -61 -13 -4 -16 -8 -7 -12 6 -2 10 -9 6 -14 -3
-5 0 -9 6 -9 7 0 10 7 6 15 -3 8 -1 15 3 15 19 0 18 -26 -2 -47 -18 -20 -18
-23 -4 -23 11 0 17 -8 17 -25 0 -14 -3 -25 -8 -25 -4 0 -6 -17 -4 -39 2 -22
-1 -42 -8 -46 -7 -5 -8 -11 -1 -19 12 -14 3 -56 -11 -56 -6 0 -7 12 -4 28 5
19 4 23 -3 13 -8 -13 -12 -13 -26 -1 -15 12 -16 11 -9 -14 5 -21 1 -32 -21
-52 -21 -20 -25 -28 -15 -34 9 -5 11 -19 7 -40 -8 -37 16 -82 39 -73 8 3 14
-1 14 -11 0 -8 -10 -18 -23 -21 -12 -4 -27 -16 -32 -28 -6 -12 -17 -22 -25
-22 -8 0 -16 -11 -18 -24 -3 -18 -8 -22 -27 -18 -26 4 -38 -12 -29 -40 5 -17
5 -17 -6 0 -14 22 -29 22 -46 0 -20 -26 -18 -28 31 -28 34 0 44 -3 40 -13 -3
-8 -5 -16 -5 -18 0 -2 -7 -4 -15 -4 -8 0 -15 -4 -15 -10 0 -5 -7 -6 -17 -3
-11 4 -14 3 -9 -6 5 -8 18 -10 32 -7 27 7 29 -1 12 -39 -9 -19 -9 -28 0 -37 9
-9 12 -6 12 12 0 13 3 20 7 17 3 -4 12 -2 20 4 10 9 13 6 13 -14 0 -19 -6 -26
-31 -31 -25 -5 -29 -9 -24 -26 10 -30 -23 -26 -35 5 -5 14 -15 25 -22 24 -10
0 -10 -2 0 -6 10 -4 10 -8 1 -19 -9 -11 -8 -15 5 -20 9 -3 13 -11 9 -17 -4 -7
0 -8 11 -4 21 8 46 -14 46 -41 0 -26 -11 -34 -24 -17 -6 7 -22 16 -36 18 -14
2 -19 2 -13 0 16 -6 17 -23 1 -23 -6 0 -20 -7 -30 -17 -14 -12 -18 -13 -18 -3
0 9 -5 7 -15 -6 -17 -22 -20 -38 -5 -29 5 3 10 4 10 0 0 -3 -11 -10 -25 -15
-26 -10 -32 -24 -15 -35 6 -3 10 -18 10 -32 0 -21 3 -23 14 -13 8 6 12 18 9
26 -3 8 0 14 6 14 6 0 11 -6 11 -14 0 -8 6 -17 13 -19 6 -3 2 -6 -10 -6 -13
-1 -23 -7 -23 -16 0 -18 -12 -19 -28 -3 -9 9 -12 8 -12 -4 0 -9 6 -19 13 -22
8 -3 7 -9 -7 -20 -10 -8 -23 -13 -27 -10 -5 3 -9 -6 -9 -20 0 -25 -29 -44 -49
-31 -15 9 -24 -15 -11 -30 9 -11 7 -15 -12 -20 -23 -6 -24 -9 -14 -40 10 -33
11 -33 30 -17 11 9 17 12 13 6 -3 -6 0 -20 8 -30 9 -12 14 -14 15 -6 0 7 5 10
10 7 6 -3 10 1 10 9 0 9 -5 16 -11 16 -5 0 -7 5 -3 11 8 14 21 -6 28 -45 3
-19 -1 -34 -11 -45 -16 -15 -16 -15 -10 2 3 9 2 17 -3 17 -6 0 -10 -6 -10 -14
0 -8 -7 -17 -16 -20 -12 -4 -14 -13 -10 -32 4 -16 3 -23 -3 -20 -5 4 -12 2
-16 -4 -3 -5 -16 -10 -28 -10 -12 0 -28 -9 -35 -21 -12 -19 -11 -20 25 -18 21
1 44 1 51 0 15 -1 16 -21 2 -21 -6 0 -20 -9 -32 -19 -15 -15 -19 -27 -14 -45
3 -14 11 -26 16 -26 5 0 6 8 3 18 -6 15 -5 16 13 2 39 -30 43 -45 14 -53 -11
-3 -20 -1 -20 5 0 5 -7 2 -16 -6 -8 -9 -20 -16 -25 -16 -17 0 -9 -29 11 -43
20 -14 17 -27 -6 -27 -8 0 -11 6 -7 17 4 11 3 14 -5 9 -17 -10 -15 -36 3 -36
8 0 15 -4 15 -9 0 -5 9 -11 20 -14 11 -3 20 -1 20 5 0 5 5 6 11 2 8 -4 5 -10
-7 -17 -28 -15 -28 -15 -14 -32 7 -9 8 -15 2 -15 -11 0 -11 -18 1 -37 6 -9 2
-13 -12 -13 -14 0 -19 5 -15 15 5 11 2 13 -12 8 -13 -5 -15 -3 -9 7 5 8 3 11
-6 8 -8 -3 -14 -18 -14 -34 0 -29 0 -29 57 -28 42 1 58 -2 58 -12 0 -7 -5 -16
-12 -20 -8 -5 -7 -9 5 -13 12 -4 14 -10 7 -21 -9 -13 -11 -13 -19 -1 -13 21
-61 26 -61 7 0 -8 -6 -17 -12 -20 -7 -3 2 -3 20 0 29 4 32 2 32 -21 0 -16 -6
-25 -15 -25 -8 0 -15 5 -15 10 0 6 -6 10 -14 10 -8 0 -22 10 -31 22 -13 20
-18 21 -36 10 -12 -8 -18 -9 -15 -4 3 5 -1 15 -9 22 -13 11 -15 10 -10 -1 2
-8 7 -36 9 -64 3 -27 8 -60 11 -72 6 -20 9 -21 22 -7 14 13 13 17 -3 29 -18
14 -17 14 9 15 17 0 27 -5 27 -14 0 -16 27 -12 68 10 22 11 22 13 5 18 -10 3
-1 4 19 1 30 -3 38 0 43 16 6 19 8 19 32 4 24 -16 24 -16 13 5 -7 13 -21 25
-31 27 -26 7 -24 23 2 23 15 0 19 5 15 16 -3 9 -2 12 5 9 5 -4 7 -16 3 -27 -4
-13 -2 -18 4 -14 13 8 24 -9 28 -44 3 -24 1 -26 -28 -22 -21 3 -33 0 -40 -12
-5 -9 -23 -17 -41 -17 -24 -1 -26 -3 -9 -6 12 -2 22 -8 22 -13 0 -13 -23 -18
-52 -9 -25 7 -38 3 -38 -11 0 -4 10 -6 22 -6 13 1 22 -4 21 -11 -4 -17 3 -16
32 3 14 9 25 23 25 31 0 10 6 13 16 9 9 -3 18 -6 20 -6 2 0 -3 -11 -12 -25
-15 -24 -15 -25 10 -36 17 -8 25 -18 21 -28 -3 -12 3 -16 22 -18 25 -1 26 0
10 12 -14 10 -15 14 -4 18 8 3 20 1 28 -4 8 -5 10 -9 5 -9 -5 0 -1 -9 9 -20
15 -17 16 -22 4 -36 -12 -14 -14 -14 -25 1 -18 25 -50 15 -46 -15 1 -13 8 -28
15 -33 9 -7 9 -10 0 -14 -7 -2 -13 -13 -13 -23 0 -11 -8 -24 -17 -29 -17 -10
-17 -10 0 -11 9 0 17 -4 17 -10 0 -5 -7 -7 -16 -3 -9 3 -20 0 -24 -8 -5 -7
-12 -11 -15 -7 -11 11 5 47 24 53 10 3 18 12 18 20 0 17 -36 11 -50 -9 -5 -6
-6 -2 -2 11 3 12 1 24 -4 27 -6 4 -7 14 -4 23 5 12 2 15 -10 10 -12 -4 -14 -2
-10 10 5 12 1 14 -18 8 -56 -18 -69 -25 -69 -40 0 -9 -4 -13 -10 -10 -15 9
-12 -11 3 -27 8 -8 12 -29 10 -53 -1 -24 2 -44 10 -50 7 -5 13 -23 13 -40 3
-104 154 -516 283 -775 72 -144 102 -196 213 -377 236 -384 624 -802 1003
-1081 61 -45 121 -90 135 -100 25 -18 191 -122 287 -179 88 -53 302 -157 453
-220 363 -153 760 -253 1185 -299 204 -22 620 -22 815 0 610 68 1138 240 1644
533 574 333 1089 831 1417 1372 22 36 44 73 49 81 60 95 210 385 210 405 0 3
11 28 24 57 13 29 35 82 50 118 l26 65 -35 -40 c-19 -22 -37 -48 -41 -59 -3
-10 -28 -41 -55 -69 -28 -29 -45 -53 -39 -55 17 -6 11 -23 -8 -20 -24 4 -72
-45 -72 -73 0 -15 -4 -19 -15 -15 -19 7 -45 -41 -29 -52 22 -15 23 -42 4 -52
-11 -6 -20 -18 -20 -28 -1 -19 -32 -45 -67 -56 -23 -7 -32 -26 -13 -26 6 0 10
-7 10 -15 0 -9 -9 -15 -23 -15 -12 0 -28 -9 -35 -20 -7 -12 -8 -20 -2 -20 5 0
10 -4 10 -9 0 -5 -6 -9 -12 -8 -41 1 -49 -3 -43 -23 5 -16 2 -20 -14 -20 -22
0 -63 -38 -55 -51 3 -5 -2 -6 -10 -3 -11 4 -16 0 -16 -15 0 -12 -6 -21 -15
-21 -9 0 -18 -7 -22 -16 -3 -8 -12 -13 -20 -9 -12 4 -14 0 -10 -15 3 -11 -1
-23 -7 -28 -7 -4 -18 -17 -25 -30 -7 -12 -16 -20 -22 -17 -5 4 -9 1 -9 -4 0
-6 -4 -10 -8 -9 -5 2 -34 -23 -65 -55 -31 -31 -61 -57 -67 -57 -5 0 -10 -7
-10 -15 0 -8 -6 -12 -14 -9 -8 3 -16 -4 -20 -20 -4 -15 -13 -26 -23 -26 -16 0
-63 -45 -63 -60 0 -3 -16 -12 -35 -20 -19 -7 -32 -17 -29 -22 5 -8 -17 -12
-44 -9 -10 2 -12 -4 -7 -18 5 -16 2 -21 -12 -21 -28 0 -71 -33 -65 -50 3 -8 1
-12 -3 -8 -7 7 -24 -4 -52 -34 -9 -9 -22 -14 -29 -11 -19 7 -74 -29 -74 -49 0
-12 -7 -17 -22 -15 -12 1 -23 -2 -23 -8 0 -5 -4 -16 -8 -22 -5 -7 -5 -17 -2
-23 3 -5 -2 -10 -12 -11 -10 0 -13 -3 -5 -6 18 -7 15 -22 -5 -21 -10 0 -27 -3
-38 -8 -17 -7 -18 -6 -7 8 10 13 10 17 -1 21 -15 6 -47 -15 -47 -32 0 -6 -7
-11 -15 -11 -9 0 -18 -6 -21 -14 -6 -14 -44 -10 -44 5 0 18 -29 -4 -34 -26 -5
-21 -11 -24 -50 -22 -39 1 -48 -3 -87 -42 -28 -28 -49 -41 -61 -38 -20 6 -25
-9 -5 -16 6 -2 9 -8 4 -12 -4 -5 -13 -3 -19 3 -18 18 -30 14 -23 -7 3 -11 1
-22 -5 -26 -5 -3 -10 -17 -10 -31 0 -13 -4 -24 -10 -24 -5 0 -13 -1 -17 -2 -3
-2 -8 7 -9 19 -2 13 1 23 7 23 5 0 8 4 4 9 -3 5 4 12 15 16 24 8 18 25 -8 20
-9 -2 -21 -4 -25 -4 -5 -1 -7 -9 -6 -18 3 -38 -2 -53 -17 -53 -13 0 -14 3 -4
15 17 21 -11 30 -53 18 -25 -7 -33 -15 -35 -38 -3 -19 -6 -24 -12 -15 -11 18
-40 5 -40 -20 0 -22 15 -27 24 -7 3 6 3 -1 0 -18 -4 -22 -3 -26 5 -15 12 17
26 7 18 -13 -3 -8 -20 -14 -37 -15 -29 -1 -31 1 -25 25 6 24 4 25 -22 18 -15
-4 -36 -7 -45 -7 -10 0 -18 -6 -18 -15 0 -10 6 -14 18 -11 11 3 19 0 19 -8 0
-8 -9 -14 -19 -14 -10 0 -18 5 -18 10 0 6 -4 10 -10 10 -5 0 -10 -7 -10 -16 0
-8 -4 -13 -9 -10 -5 4 -11 1 -13 -5 -3 -9 -9 -9 -26 0 -17 9 -27 9 -43 0 -13
-6 -19 -7 -15 -1 3 6 -2 13 -11 15 -14 4 -13 5 4 6 15 1 25 9 29 26 3 14 11
22 17 18 5 -3 7 -1 3 5 -3 5 0 12 6 15 7 2 10 7 7 11 -3 3 -17 -4 -30 -16 -25
-23 -70 -30 -99 -14 -8 4 -7 1 3 -7 10 -8 14 -18 9 -21 -12 -7 -52 4 -52 16 0
5 -7 5 -17 0 -10 -5 -23 -7 -30 -5 -6 2 -13 -4 -15 -14 -3 -17 -4 -17 -23 2
-19 18 -41 22 -98 17 -11 -1 -18 -9 -16 -19 3 -34 -1 -43 -21 -43 -11 0 -20
-6 -20 -14 0 -22 19 -30 35 -16 11 9 15 9 15 1 0 -6 4 -11 8 -11 7 0 13 27 15
73 1 18 17 25 17 7 0 -6 12 -8 28 -5 l27 5 -28 -11 c-17 -7 -26 -16 -23 -24 3
-8 0 -16 -7 -19 -7 -4 0 -4 15 -2 16 2 25 -1 21 -7 -3 -5 1 -13 8 -18 10 -6 8
-9 -8 -9 -25 0 -31 -15 -10 -23 10 -4 10 -6 0 -6 -7 -1 -13 -10 -13 -20 0 -24
-25 -34 -40 -16 -14 17 -34 9 -27 -9 10 -27 -9 -37 -29 -16 -10 12 -33 35 -51
52 -29 29 -30 33 -15 45 15 13 15 13 -5 8 -12 -3 -24 -2 -27 3 -3 6 3 12 14
15 22 6 28 27 7 27 -7 0 -19 -6 -25 -12 -10 -10 -15 -10 -21 1 -7 11 -9 11
-14 0 -4 -10 -6 -9 -6 4 -1 21 -15 22 -34 2 -12 -11 -16 -12 -20 -2 -3 9 -7 9
-19 -1 -14 -11 -19 -9 -36 13 -23 29 -40 17 -20 -15 7 -11 23 -20 37 -20 24 0
24 0 -7 -28 -32 -28 -42 -52 -22 -52 6 0 10 7 10 15 0 8 7 15 15 15 8 0 15 5
15 11 0 5 5 7 10 4 6 -3 8 -19 5 -34 -4 -22 -1 -28 11 -27 9 0 19 -5 22 -13 3
-9 -1 -11 -14 -8 -11 3 -37 9 -58 13 -33 6 -38 4 -33 -9 3 -8 0 -17 -6 -20 -7
-3 -13 6 -14 20 0 14 -7 30 -13 37 -10 8 -11 8 -6 -1 3 -6 -2 -18 -13 -25 -11
-8 -21 -20 -23 -28 -4 -20 -24 -40 -39 -40 -7 0 -9 3 -6 6 3 4 2 15 -3 24 -8
15 -6 17 10 13 13 -4 20 0 20 10 0 10 -9 13 -30 11 -30 -4 -30 -3 -16 18 11
15 12 26 6 39 -6 10 -7 26 -4 36 3 10 -7 4 -24 -16 -28 -31 -52 -35 -52 -9 0
6 3 9 6 6 9 -10 44 31 47 55 1 16 -3 21 -15 19 -10 -2 -18 2 -18 8 0 26 -29 6
-45 -32 -13 -31 -19 -38 -22 -25 -3 10 1 24 7 32 9 11 7 16 -9 24 -28 15 -49
5 -44 -23 4 -18 1 -22 -16 -21 -24 1 -54 25 -33 25 7 0 12 8 12 17 0 13 -3 14
-12 5 -15 -15 -32 -16 -23 -2 9 14 -14 12 -28 -2 -14 -15 -19 -50 -6 -42 5 3
9 1 9 -5 0 -5 -6 -11 -12 -13 -7 -3 -13 -11 -14 -19 -2 -25 -16 -59 -24 -59
-5 0 -16 -7 -24 -16 -9 -8 -16 -11 -16 -5 0 5 8 14 18 20 14 8 15 12 5 22 -10
10 -13 10 -13 1 0 -7 -12 -12 -26 -12 -14 0 -23 -4 -20 -9 9 -13 -26 -23 -38
-11 -7 7 -6 10 2 10 7 0 12 7 12 15 0 7 7 18 15 22 13 8 13 12 2 27 -18 25
-37 12 -37 -25 0 -23 -4 -30 -17 -28 -36 3 -51 -1 -57 -17 -4 -12 -2 -15 9
-11 8 4 17 2 20 -3 4 -6 -2 -10 -12 -10 -17 -1 -17 -2 2 -16 18 -13 20 -13 27
6 10 26 27 26 25 0 -1 -11 -5 -20 -10 -20 -5 0 -7 -7 -3 -15 3 -8 1 -15 -4
-15 -6 0 -10 4 -10 9 0 5 -10 7 -22 3 -14 -3 -19 -2 -14 7 4 6 1 18 -7 25 -13
13 -17 12 -35 -9 -12 -14 -24 -36 -28 -50 -3 -14 -11 -25 -17 -25 -7 0 -7 -4
1 -12 22 -22 13 -35 -18 -30 l-31 4 26 34 c14 19 23 34 19 34 -4 0 -1 8 7 18
32 39 52 91 30 77 -5 -3 -12 -1 -16 4 -3 6 -12 8 -20 5 -8 -4 -13 -10 -10 -14
3 -5 1 -11 -5 -15 -6 -4 -5 -13 2 -25 7 -11 9 -23 5 -27 -5 -4 -12 -1 -17 7
-10 16 -40 23 -40 9 0 -5 5 -9 10 -9 6 0 10 -7 10 -15 0 -9 6 -12 15 -9 21 9
19 -10 -6 -37 l-20 -24 6 22 c5 18 1 25 -20 35 -14 6 -25 19 -24 27 1 9 0 30
-1 46 l-3 30 -6 -35 -7 -35 -17 32 c-9 17 -14 39 -11 47 5 12 2 15 -12 9 -14
-5 -16 -3 -11 11 4 10 7 19 7 22 0 2 7 1 15 -2 8 -4 15 -2 15 4 0 5 -10 9 -22
8 -22 -1 -33 -28 -22 -56 13 -32 12 -70 -2 -70 -8 0 -14 -4 -14 -9 0 -15 27
-32 43 -25 8 3 18 1 22 -5 3 -7 0 -8 -9 -5 -11 4 -16 0 -16 -11 0 -14 -4 -14
-27 5 -15 12 -28 27 -29 33 -3 34 -5 38 -14 32 -6 -3 -10 -16 -10 -28 0 -18
-2 -19 -10 -7 -7 11 -10 7 -10 -17 0 -24 -5 -33 -16 -33 -11 0 -14 5 -9 18 4
9 9 29 11 44 3 21 0 26 -11 22 -14 -6 -21 13 -16 40 3 15 -23 26 -51 21 -16
-3 -28 -1 -28 5 0 5 14 10 30 10 28 0 29 2 18 20 -16 25 -28 26 -28 3 0 -14
-2 -15 -9 -4 -6 10 -19 12 -45 7 -28 -5 -36 -12 -36 -28 0 -15 -4 -18 -17 -13
-45 17 -102 25 -109 14 -3 -5 0 -9 5 -9 6 0 11 -7 11 -15 0 -22 -17 -18 -23 6
-4 13 -12 19 -24 17 -10 -2 -29 6 -42 19 -21 18 -22 24 -12 37 8 9 19 16 25
16 8 0 7 -3 -1 -8 -15 -9 -4 -27 17 -27 8 0 14 -6 12 -13 -2 -10 5 -9 31 1 27
12 34 12 45 1 17 -18 32 -18 32 0 0 8 6 17 13 20 8 4 7 5 -3 5 -35 -3 -61 2
-56 9 2 4 -9 15 -25 25 -30 16 -30 16 -27 -5 2 -11 -2 -23 -9 -25 -7 -3 -9 3
-6 18 5 18 3 20 -17 14 -18 -6 -22 -4 -17 9 11 27 -14 29 -41 3 -15 -14 -38
-28 -52 -32 -19 -5 -21 -4 -10 4 18 13 9 23 -10 11 -22 -14 3 -34 43 -35 25 0
33 -5 35 -21 4 -26 -20 -47 -53 -47 -14 0 -28 -3 -31 -8 -3 -5 2 -9 10 -9 9 0
16 -4 16 -9 0 -12 -110 -7 -118 6 -10 15 -82 44 -93 37 -5 -3 -9 2 -9 10 0 9
-4 16 -10 16 -5 0 -10 7 -10 15 0 18 -12 19 -28 3 -6 -6 -15 -8 -19 -3 -5 4
-2 10 5 12 6 3 12 9 12 15 0 6 -7 8 -15 4 -18 -6 -19 -1 -5 24 12 23 2 30 -28
19 -13 -5 -20 -14 -16 -20 4 -8 9 -7 15 2 7 11 9 11 9 -2 0 -8 -6 -21 -12 -27
-10 -10 -10 -17 0 -32 10 -17 10 -21 -2 -26 -8 -3 -12 -12 -9 -20 3 -8 0 -14
-7 -14 -6 0 -11 12 -10 27 3 46 1 53 -19 53 -11 0 -22 -6 -24 -12 -4 -9 -6
-10 -6 -1 -1 6 6 18 14 27 23 22 31 76 12 76 -8 0 -18 -7 -21 -16 -4 -10 -13
-13 -27 -9 -15 5 -19 4 -15 -4 4 -6 2 -11 -3 -11 -6 0 -11 4 -11 9 0 5 -9 13
-20 16 -11 3 -20 11 -20 16 0 6 4 8 9 5 4 -3 17 1 27 9 11 8 14 14 7 15 -16 0
-17 26 -2 36 6 3 15 1 19 -5 5 -9 10 -8 20 4 11 13 9 15 -9 15 -11 0 -21 5
-21 10 0 6 -5 10 -11 10 -5 0 -8 -4 -5 -9 7 -11 -19 -33 -28 -24 -4 4 -4 0 0
-10 7 -20 4 -20 -30 -7 -14 5 -28 5 -31 0 -3 -4 0 -10 6 -12 7 -2 5 -9 -5 -17
-14 -12 -16 -12 -11 1 7 19 -24 33 -39 18 -5 -5 -14 -10 -18 -10 -11 0 -10 57
1 64 5 3 9 17 9 31 0 14 -3 24 -6 21 -8 -8 -43 14 -37 23 3 5 -2 12 -11 15 -8
3 -12 2 -9 -4 3 -6 0 -10 -8 -10 -10 0 -13 -8 -9 -27 4 -24 6 -25 18 -9 7 10
15 13 18 7 4 -6 -7 -17 -23 -25 -27 -14 -31 -14 -45 0 -14 14 -17 13 -28 -11
-8 -18 -14 -22 -19 -13 -6 10 -12 8 -24 -7 -9 -11 -14 -15 -11 -9 3 7 -2 18
-11 25 -14 12 -16 12 -8 0 6 -11 4 -13 -9 -8 -10 4 -21 7 -26 7 -4 0 -6 14 -4
31 3 24 1 30 -11 25 -9 -3 -15 0 -15 8 0 8 6 17 13 19 7 4 6 6 -5 6 -9 1 -19
7 -22 14 -5 9 -7 9 -12 -1 -3 -7 -15 -17 -26 -23 -15 -8 -19 -8 -13 1 4 6 0
19 -9 29 -16 17 -15 19 3 24 12 3 19 12 17 23 -4 26 -24 29 -48 8 -20 -19 -20
-19 -13 15 5 23 4 31 -4 27 -6 -4 -11 -12 -11 -18 0 -13 -39 -48 -53 -48 -5 0
-4 -7 3 -15 10 -13 9 -15 -10 -15 -17 0 -21 4 -16 17 8 20 -9 32 -35 26 -19
-5 -19 -6 -2 -20 17 -13 16 -14 -4 -8 -16 5 -23 2 -23 -8 0 -8 -9 -17 -20 -20
-13 -3 -20 0 -20 9 0 8 6 14 14 14 21 0 24 21 8 74 -9 31 -17 44 -22 36 -6
-10 -8 -10 -12 0 -3 10 -8 10 -25 0 -12 -8 -19 -19 -17 -25 7 -16 -22 -39 -40
-32 -10 4 -13 1 -9 -9 4 -10 -2 -14 -21 -14 -26 0 -26 1 -11 24 10 15 22 22
34 19 23 -6 33 8 20 27 -5 10 -9 11 -9 3 0 -21 -29 -2 -44 29 -14 26 -14 29
-1 24 8 -3 15 -1 15 4 0 6 -9 10 -21 10 -14 0 -19 5 -16 14 5 13 -11 26 -32
26 -13 0 -51 -36 -51 -48 0 -6 -4 -13 -9 -16 -10 -7 -8 65 3 82 11 18 -13 24
-30 8 -18 -18 -49 -22 -38 -5 3 6 -6 22 -22 34 -16 13 -30 28 -30 34 -1 6 -2
15 -3 20 0 6 -11 8 -23 6 -12 -3 -25 0 -29 6 -4 6 -13 9 -20 7 -10 -3 -8 -9 8
-23 17 -15 19 -21 10 -36 -16 -26 -27 -24 -24 3 1 17 -3 22 -22 23 -13 0 -26
5 -28 12 -3 7 3 9 16 6 12 -3 21 -1 21 6 0 16 -33 51 -48 51 -9 0 -12 6 -8 16
3 9 6 21 6 27 0 6 9 1 20 -11 11 -12 20 -26 20 -32 0 -7 8 -9 20 -5 13 4 20 2
18 -5 -5 -22 19 -21 25 0 4 16 11 20 31 16 18 -3 26 0 26 10 0 9 -5 12 -12 8
-8 -5 -9 -2 -5 9 9 23 -9 21 -26 -3 -16 -23 -53 -17 -62 11 -5 15 -12 18 -28
14 -12 -4 -17 -3 -12 2 6 4 10 23 10 41 0 28 -2 30 -12 16 -6 -9 -9 -23 -6
-31 6 -14 -20 -43 -38 -43 -14 0 -20 53 -7 61 7 5 8 9 2 9 -6 0 -19 -10 -30
-22 -10 -12 -14 -18 -7 -14 18 10 30 -44 12 -55 -19 -12 -56 -11 -64 1 -4 6
-15 6 -31 -1 -21 -8 -25 -7 -21 5 3 8 1 17 -6 20 -12 4 26 10 50 7 8 -1 10 5
7 14 -4 9 -13 14 -21 11 -11 -4 -11 -1 -2 15 6 11 9 23 6 25 -8 9 -52 17 -84
15 -24 -1 -33 3 -33 15 0 10 6 14 15 11 8 -4 17 -2 20 4 4 5 10 7 15 4 7 -4
22 46 15 53 -6 7 -55 -22 -55 -33 0 -7 -7 -18 -15 -25 -8 -7 -15 -22 -15 -34
-1 -19 -1 -20 -11 -3 -8 13 -7 22 1 33 9 9 9 14 1 14 -6 0 -8 11 -4 30 5 26 2
30 -15 30 -12 0 -23 4 -26 9 -6 9 -56 2 -56 -8 0 -4 5 -12 12 -19 9 -9 9 -12
1 -12 -10 0 -26 31 -28 53 0 4 -6 12 -14 16 -7 5 -10 14 -7 20 4 6 -1 14 -11
18 -16 6 -15 8 7 14 21 6 21 7 5 8 -15 1 -21 9 -23 27 -1 15 2 23 8 19 6 -4 8
-10 5 -15 -3 -4 5 -10 16 -13 15 -4 19 -2 15 8 -3 8 0 17 6 21 7 4 5 10 -6 16
-9 5 -16 13 -16 18 0 5 -5 21 -12 37 -6 15 -10 34 -9 40 1 7 -5 13 -13 13 -10
0 -13 6 -9 17 4 11 3 14 -5 9 -7 -4 -12 -2 -12 3 0 6 7 11 15 11 8 0 15 5 15
11 0 5 -5 7 -10 4 -17 -10 -11 7 8 22 9 8 11 12 5 8 -7 -3 -13 -1 -13 4 0 6
-4 11 -10 11 -5 0 -7 -7 -4 -15 4 -10 0 -15 -15 -15 -15 0 -21 -6 -21 -22 0
-19 -2 -20 -10 -8 -8 13 -10 13 -10 0 0 -10 -3 -11 -11 -3 -8 8 -8 17 0 31 7
14 8 23 1 27 -16 10 -12 28 5 21 9 -3 20 3 27 14 7 11 17 20 23 20 6 0 16 9
23 20 15 24 14 24 -26 4 -18 -8 -32 -22 -32 -30 0 -8 -4 -14 -10 -14 -5 0 -10
4 -10 9 0 5 -9 11 -20 14 -11 3 -20 1 -20 -4 0 -9 -15 -7 -57 6 -27 9 -28 12
-9 30 8 8 24 12 35 10 13 -2 30 4 43 17 16 16 17 20 5 15 -12 -5 -17 -1 -17
13 0 23 -20 37 -30 20 -5 -9 -9 -9 -14 -1 -4 6 -4 16 -1 21 3 6 -1 10 -9 10
-40 0 -23 40 19 44 21 2 29 9 30 25 1 12 -3 20 -9 18 -6 -3 -10 -10 -8 -16 1
-7 -3 -9 -9 -5 -6 3 -15 1 -19 -5 -9 -16 -97 -23 -97 -8 0 7 -4 21 -8 32 -4
11 -3 15 2 9 4 -6 21 -14 37 -18 21 -5 32 -2 42 11 18 24 17 33 -1 33 -8 0
-17 11 -21 24 -4 16 -11 23 -20 19 -8 -3 -14 1 -14 9 0 10 -9 13 -30 10 -23
-3 -30 0 -30 12 0 18 -21 21 -37 5 -8 -8 -13 -8 -17 0 -4 6 -3 11 2 11 5 0 7
19 5 41 -4 34 -2 41 11 36 8 -3 18 -2 21 3 4 6 -2 10 -12 10 -15 0 -16 2 -3
11 12 8 10 9 -7 4 -19 -5 -23 -2 -23 14 0 24 10 27 28 9 9 -9 12 -8 12 7 0 15
3 16 12 7 7 -7 19 -12 27 -12 13 1 13 2 -1 11 -11 6 -15 16 -11 26 5 12 3 14
-8 7 -21 -13 -78 -11 -84 4 -2 6 -11 12 -20 12 -9 0 -15 8 -14 23 1 16 2 18 6
5 7 -26 32 -22 39 7 8 33 -2 60 -19 48 -6 -6 -22 -13 -34 -15 -16 -4 -20 -2
-16 8 3 8 -1 14 -11 14 -24 0 -21 46 4 53 11 3 18 2 16 -2 -5 -8 76 -51 94
-51 6 0 10 9 10 21 0 12 5 19 13 16 6 -2 11 -10 10 -16 -2 -6 2 -11 7 -11 15
0 12 16 -5 30 -9 7 -22 9 -32 5 -32 -14 -44 -14 -50 1 -3 8 -9 12 -13 9 -5 -3
-11 -1 -15 4 -6 10 16 8 48 -4 19 -8 24 10 5 19 -13 6 28 -3 47 -11 6 -2 11 7
12 19 2 15 -1 18 -6 10 -12 -21 -38 -3 -45 30 -7 37 -8 34 27 43 23 6 26 5 20
-11 -4 -12 -3 -15 6 -10 8 5 12 3 10 -5 -5 -39 1 -50 21 -39 24 13 26 30 5 30
-8 0 -15 4 -15 9 0 14 18 23 22 11 1 -5 8 -6 15 -2 15 10 4 62 -13 62 -17 0
-18 -12 -2 -28 9 -9 9 -12 0 -12 -7 0 -12 4 -12 9 0 5 -9 7 -19 4 -13 -3 -23
2 -31 16 -14 27 -4 44 22 35 20 -6 19 -5 -1 15 -20 20 -25 33 -22 58 1 6 -4
15 -10 19 -8 4 -9 3 -5 -4 4 -7 2 -12 -3 -12 -6 0 -11 3 -12 8 0 4 -2 22 -4
41 -2 20 0 29 5 21 5 -8 18 -14 30 -15 21 -2 20 -1 -4 22 -14 12 -30 23 -36
23 -5 0 -10 11 -10 25 0 16 -6 25 -15 25 -8 0 -15 5 -15 10 0 6 4 10 9 10 6 0
13 -4 16 -10 9 -15 25 -12 25 4 0 23 -23 36 -40 23 -32 -25 -60 -70 -55 -88 4
-10 2 -27 -4 -36 -7 -12 -10 -13 -11 -4 0 8 -6 11 -18 7 -16 -6 -16 -5 1 8 21
16 22 26 1 26 -11 0 -15 8 -14 28 4 56 0 83 -13 81 -26 -3 -37 2 -37 16 0 8 4
15 8 15 4 0 8 9 9 21 2 16 -1 18 -11 10 -7 -6 -16 -8 -19 -4 -4 3 -7 0 -7 -8
-1 -8 -7 -3 -14 10 -8 15 -16 19 -20 13 -9 -14 -36 -4 -36 14 0 8 6 11 15 8
11 -5 13 -2 9 10 -3 9 -1 16 5 16 6 0 11 -4 11 -10 0 -5 7 -10 15 -10 8 0 15
4 15 8 0 12 -44 52 -58 52 -7 0 -12 5 -12 10 0 13 37 13 45 0 3 -5 13 -7 23
-4 15 5 15 4 1 -8 -14 -12 -14 -15 4 -33 19 -20 19 -20 13 3 -6 16 -3 24 11
29 10 4 25 14 35 22 14 14 14 18 2 29 -9 8 -14 9 -14 2 0 -15 -42 -8 -48 8 -2
6 3 12 12 12 11 0 16 10 16 34 0 18 7 39 15 46 8 7 14 24 13 39 -1 15 1 32 5
38 13 20 -11 24 -48 9 -37 -16 -49 -32 -15 -21 14 5 20 2 20 -9 0 -9 5 -15 11
-13 6 1 13 -3 16 -9 6 -17 -29 -27 -38 -12 -5 7 -21 14 -36 14 -15 1 -30 2
-32 3 -2 1 4 10 14 21 10 11 13 20 7 20 -6 0 -9 6 -6 14 4 9 -3 13 -22 12 -34
-1 -42 19 -12 29 21 7 20 8 -9 12 -36 5 -44 18 -14 26 25 6 51 -10 51 -33 0
-11 6 -20 13 -20 17 0 56 29 40 30 -7 0 -13 9 -13 20 0 11 -3 19 -7 19 -5 -1
-17 -1 -28 0 -19 2 -19 2 -2 12 10 6 28 9 38 6 16 -4 18 -3 9 8 -6 8 -18 11
-25 9 -7 -3 -19 4 -25 16 -10 19 -9 21 7 16 10 -3 24 -2 31 3 10 6 10 10 -3
21 -20 16 -19 31 1 23 14 -5 15 -3 4 17 -7 12 -7 20 -2 16 6 -3 13 -2 17 4 4
6 10 8 15 5 5 -3 11 3 15 14 7 23 -4 71 -16 71 -5 0 -9 4 -9 8 0 5 13 7 28 4
19 -2 29 1 29 10 0 9 -12 12 -44 9 -37 -3 -43 0 -43 16 0 10 -5 24 -11 30 -21
21 8 22 30 2 12 -12 24 -19 27 -17 2 3 -5 13 -15 22 -11 10 -17 25 -14 34 5
12 2 14 -11 9 -14 -5 -17 -3 -12 8 3 8 1 15 -4 15 -14 0 -12 27 1 36 7 4 20
-4 30 -17 21 -28 22 -26 10 19 -6 20 -6 32 0 32 5 0 9 -5 9 -12 0 -9 3 -9 11
-1 6 6 18 9 26 6 12 -5 11 -10 -8 -24 -24 -19 -24 -19 -2 -19 17 0 21 -5 20
-27 -1 -16 -6 -31 -11 -34 -15 -12 4 -29 29 -27 19 2 25 8 25 26 0 17 -4 22
-15 19 -23 -9 -28 11 -5 23 14 8 20 8 20 0 0 -6 4 -9 10 -5 13 8 1 35 -16 35
-21 0 -17 30 4 31 10 0 6 4 -11 11 -21 8 -25 13 -17 23 8 9 8 15 0 20 -5 3
-10 11 -10 17 0 6 7 5 17 -3 15 -13 15 -12 4 9 -8 16 -9 27 -1 42 7 14 7 20 0
20 -5 0 -10 -5 -10 -12 0 -9 -3 -9 -12 1 -11 10 -9 15 6 27 19 14 19 14 1 27
-17 13 -17 14 6 20 14 4 26 1 31 -6 5 -8 8 -4 8 10 0 12 3 29 6 37 5 12 2 15
-9 10 -9 -3 -13 -12 -10 -20 3 -9 -2 -14 -15 -14 -20 0 -40 35 -28 47 3 3 -4
17 -14 31 -11 13 -20 31 -20 38 0 7 -8 18 -17 23 -16 9 -16 10 -2 11 18 0 49
-40 49 -65 0 -8 7 -15 15 -15 19 0 19 14 0 30 -19 16 -10 30 21 30 28 0 33 16
7 23 -17 4 -17 5 0 6 9 0 17 5 17 10 0 4 -12 6 -26 3 -19 -3 -25 -1 -20 7 11
17 69 14 63 -3 -3 -8 1 -17 9 -20 10 -4 14 2 14 19 0 14 -4 25 -10 25 -5 0
-10 8 -11 18 0 10 -3 12 -6 5 -8 -20 -23 -15 -23 7 0 16 7 20 30 20 17 0 30 3
30 6 0 10 -25 29 -37 29 -7 0 -13 3 -13 8 0 4 0 12 0 17 0 17 29 11 47 -10 13
-14 20 -17 30 -8 18 14 16 31 -2 24 -13 -5 -17 0 -14 20 0 4 -3 10 -8 13 -5 3
-20 24 -33 46 -21 33 -25 37 -28 20 -2 -11 -8 -25 -13 -31 -13 -16 -71 -12
-77 5 -3 10 0 12 11 8 11 -4 14 -2 10 9 -7 19 14 18 25 -2 8 -14 10 -14 21 0
8 9 10 16 6 16 -5 0 4 11 20 24 17 15 26 30 22 40 -4 10 -1 13 9 9 10 -4 12 0
8 11 -4 12 0 16 16 16 11 0 19 -4 15 -9 -3 -6 3 -15 14 -20 25 -14 34 -14 26
-1 -3 6 1 13 11 17 16 6 15 7 -2 20 -10 7 -12 13 -6 13 18 0 32 42 20 58 -15
17 -25 15 -31 -8 -6 -22 -32 -27 -43 -8 -4 6 2 19 14 28 14 12 17 21 11 27 -7
7 -5 12 6 17 9 3 13 2 10 -4 -13 -21 7 -31 26 -14 26 23 25 64 0 64 -24 0 -39
39 -20 51 20 13 34 5 31 -17 -2 -18 -2 -18 11 -2 10 13 16 15 25 6 9 -9 12 -7
12 10 0 12 5 22 10 22 6 0 10 -7 10 -15 0 -22 18 -18 25 5 8 26 -3 42 -25 35
-26 -8 -70 12 -70 32 0 10 -5 25 -10 33 -8 12 -12 13 -19 2 -6 -11 -10 -9 -14
7 -3 12 -1 21 3 21 19 0 60 -24 60 -34 0 -6 7 2 16 19 21 40 15 90 -11 90 -21
1 -68 24 -49 25 7 0 11 14 8 38 -1 20 -1 29 2 20 3 -10 12 -18 20 -18 17 0 18
-12 3 -27 -7 -7 -2 -12 20 -15 17 -3 31 -2 31 2 0 3 14 5 30 4 17 -1 30 2 30
7 0 5 -6 9 -14 9 -7 0 -19 7 -27 16 -10 13 -10 17 2 25 9 6 18 4 25 -5 12 -17
40 -4 30 13 -4 6 -12 9 -17 6 -5 -4 -9 1 -9 9 0 9 -4 16 -10 16 -5 0 -10 7
-10 15 0 8 9 15 20 15 11 0 20 4 20 9 0 5 3 17 7 27 4 12 3 15 -5 10 -13 -8
-14 -6 -16 37 -2 34 10 35 18 2 4 -14 11 -25 17 -25 6 0 9 9 6 20 -4 15 0 20
15 20 17 0 18 3 8 15 -7 8 -18 15 -26 15 -7 0 -14 10 -16 23 -2 15 -9 21 -20
19 -19 -3 -22 6 -12 32 3 8 12 12 20 9 8 -3 14 0 14 6 0 6 -8 11 -18 11 -29 0
-58 36 -29 37 22 0 90 33 83 40 -13 13 -35 11 -40 -4 -3 -8 -11 -11 -17 -7 -8
4 -9 3 -5 -4 9 -15 5 -15 -28 -2 -28 10 -26 42 3 39 29 -3 41 1 41 12 0 11
-23 8 -67 -8 -15 -5 -14 -1 6 20 24 26 55 31 77 12 7 -5 10 -13 7 -17 -7 -12
10 -9 30 6 16 13 16 14 -4 19 -12 3 -18 10 -14 17 5 8 11 7 23 -2 13 -11 14
-11 7 2 -5 8 -8 22 -7 31 2 9 -4 19 -12 22 -9 4 -13 13 -10 22 4 9 0 15 -9 15
-15 0 -33 17 -25 25 1 2 15 6 29 10 24 6 25 5 23 -32 -3 -37 -3 -37 14 -18 9
12 29 27 45 35 15 7 27 21 27 31 0 9 9 19 20 22 12 3 20 14 21 29 1 23 1 23 8
-2 5 -17 9 -21 15 -12 9 14 26 16 26 2 0 -5 -12 -13 -27 -16 -43 -10 -46 -14
-27 -36 18 -19 18 -19 26 3 8 21 10 21 25 7 14 -15 14 -18 1 -32 -9 -8 -18
-12 -22 -9 -3 4 -6 1 -6 -5 0 -16 5 -15 46 4 l34 17 -19 33 c-23 39 -7 48 24
14 24 -26 36 -17 25 20 -5 18 -5 32 1 35 5 4 9 -1 9 -9 0 -9 4 -16 9 -16 20 0
23 -41 4 -55 -17 -14 -17 -14 5 -15 12 0 22 3 23 8 4 38 12 69 21 79 7 9 7 13
-1 13 -6 0 -11 -4 -11 -10 0 -5 -4 -10 -9 -10 -5 0 -4 11 2 25 12 25 27 34 27
15 0 -15 26 -12 40 5 7 8 16 13 20 10 4 -2 5 7 2 20 -5 30 -12 31 -35 5 -22
-26 -37 -26 -30 0 3 11 9 18 13 15 4 -3 10 3 12 13 3 10 13 19 22 19 9 0 14
-3 11 -5 -3 -3 5 -10 18 -17 17 -8 25 -8 34 1 18 17 30 55 25 77 -3 16 -5 16
-32 -3 -36 -26 -38 -25 -32 5 3 16 11 25 22 25 10 0 25 3 34 6 11 4 19 -2 25
-17 l9 -24 12 30 c12 31 6 75 -13 88 -7 5 -3 7 11 4 17 -4 22 -1 22 14 0 12 5
16 15 13 8 -3 17 0 19 7 16 54 17 56 26 33 10 -25 30 -35 60 -27 13 3 19 11
16 19 -3 8 -1 14 3 14 14 0 20 -27 9 -38 -6 -6 -6 -12 1 -17 6 -3 14 2 17 12
3 10 10 28 14 40 11 26 111 77 121 61 5 -7 12 -7 25 0 17 10 16 12 -13 24 -18
7 -33 16 -33 20 0 4 -10 8 -22 8 -21 0 -21 0 -2 -14 18 -14 18 -16 2 -33 -11
-10 -18 -13 -18 -5 0 7 -7 12 -16 12 -9 0 -14 -6 -11 -13 4 -10 -5 -14 -31
-14 -21 0 -29 2 -19 4 13 3 17 11 14 24 -3 12 0 19 10 19 10 0 13 6 9 16 -3 8
-2 13 3 10 4 -3 13 6 20 20 6 15 7 23 1 19 -5 -3 -10 0 -10 7 0 10 -2 10 -8 1
-6 -9 -12 -7 -22 7 -8 11 -20 20 -27 20 -25 0 -12 15 32 36 25 12 45 18 45 14
0 -5 9 -11 19 -15 11 -3 18 -12 15 -20 -9 -21 13 -27 43 -11 20 11 23 15 11
16 -15 0 -16 3 -6 26 10 22 10 28 -3 38 -8 6 -16 28 -17 48 -2 29 2 38 18 43
11 3 20 11 20 16 0 15 27 10 34 -6 5 -15 -4 -19 -36 -16 -20 2 -22 -7 -9 -28
7 -11 15 -10 45 4 33 16 48 35 28 35 -5 0 -9 7 -9 15 0 8 4 15 9 15 4 0 8 -5
8 -11 0 -19 50 -60 63 -52 6 4 32 8 57 10 30 1 40 -1 30 -7 -12 -7 -10 -11 10
-18 19 -7 26 -6 28 6 2 8 -1 18 -8 22 -8 5 -9 10 -2 14 6 3 12 0 15 -6 3 -10
7 -10 20 1 21 16 22 31 3 31 -11 0 -12 5 -3 25 7 13 14 19 16 12 10 -30 28
-24 68 21 30 33 41 53 37 67 -4 16 -3 17 5 5 9 -13 12 -12 17 8 4 12 13 22 20
22 13 0 18 12 15 33 0 4 4 7 9 7 6 0 50 39 100 88 49 48 127 121 174 162 46
41 83 81 80 88 -2 7 0 11 5 7 5 -3 29 10 53 28 23 17 54 40 68 49 14 10 48 34
75 53 427 307 879 501 1384 596 144 27 139 30 -77 49 -147 12 -453 12 -473 -1
-7 -4 -21 -3 -31 2 -13 7 -23 4 -39 -12z m226 -19 c3 -6 -1 -7 -9 -4 -18 7
-21 14 -7 14 6 0 13 -4 16 -10z m-1565 -600 c0 -5 -5 -10 -11 -10 -5 0 -7 5
-4 10 3 6 8 10 11 10 2 0 4 -4 4 -10z m-345 -271 c11 -17 -1 -21 -15 -4 -8 9
-8 15 -2 15 6 0 14 -5 17 -11z m-116 -78 c8 -14 7 -20 -4 -25 -11 -4 -15 2
-15 19 0 30 6 32 19 6z m356 9 c-3 -5 -14 -10 -23 -10 -15 0 -15 2 -2 10 20
13 33 13 25 0z m-245 -61 c0 -5 -4 -9 -10 -9 -5 0 -10 7 -10 16 0 8 5 12 10 9
6 -3 10 -10 10 -16z m-210 -17 c0 -13 -12 -22 -22 -16 -10 6 -1 24 13 24 5 0
9 -4 9 -8z m50 -19 c-1 -24 -2 -26 -11 -10 -5 9 -7 22 -4 27 10 17 15 11 15
-17z m140 7 c0 -5 -2 -10 -4 -10 -3 0 -8 5 -11 10 -3 6 -1 10 4 10 6 0 11 -4
11 -10z m270 -30 c0 -5 -5 -10 -11 -10 -5 0 -7 5 -4 10 3 6 8 10 11 10 2 0 4
-4 4 -10z m-555 -24 c-26 -19 -9 -45 26 -39 30 4 40 -11 13 -21 -38 -15 -82
10 -70 40 3 8 2 12 -4 9 -6 -3 -10 -2 -10 2 0 11 42 31 53 25 5 -2 1 -9 -8
-16z m665 14 c0 -5 -4 -10 -10 -10 -5 0 -10 -7 -10 -15 0 -8 -4 -15 -10 -15
-13 0 -13 6 2 30 14 21 28 26 28 10z m-460 -21 c0 -10 -4 -21 -10 -24 -5 -3
-10 -2 -10 4 0 5 -7 16 -14 24 -13 13 -12 15 10 15 17 0 24 -6 24 -19z m145
-19 c3 -6 -1 -7 -9 -4 -18 7 -21 14 -7 14 6 0 13 -4 16 -10z m-161 -35 c3 -8
1 -15 -4 -15 -6 0 -10 7 -10 15 0 8 2 15 4 15 2 0 6 -7 10 -15z m383 4 l28
-11 -24 -9 c-23 -9 -40 1 -41 24 0 9 4 9 37 -4z m-297 -3 c0 -2 -8 -10 -17
-17 -16 -13 -17 -12 -4 4 13 16 21 21 21 13z m-47 -36 c-3 -11 -9 -20 -14 -20
-14 0 -11 28 4 33 6 3 13 6 14 6 0 1 -1 -8 -4 -19z m77 -1 c0 -6 -4 -7 -10 -4
-5 3 -10 11 -10 16 0 6 5 7 10 4 6 -3 10 -11 10 -16z m-470 -3 c0 -17 -14 -29
-23 -20 -8 8 3 34 14 34 5 0 9 -6 9 -14z m167 8 c-3 -3 -12 -4 -19 -1 -8 3 -5
6 6 6 11 1 17 -2 13 -5z m492 -8 c7 -8 8 -17 3 -20 -6 -3 -12 3 -15 14 -6 24
-4 25 12 6z m-172 -18 c-3 -8 -6 -5 -6 6 -1 11 2 17 5 13 3 -3 4 -12 1 -19z
m-231 -25 c-3 -8 -6 -20 -6 -25 0 -22 -15 4 -15 27 -1 15 4 21 13 18 7 -3 11
-12 8 -20z m217 13 c4 -10 1 -13 -9 -9 -15 6 -19 23 -5 23 5 0 11 -7 14 -14z
m80 -10 c-21 -28 -24 -28 -16 2 3 12 12 22 20 22 11 0 10 -5 -4 -24z m-184
-22 c-9 -11 -9 -14 0 -14 7 0 9 -5 5 -11 -5 -8 -9 -7 -15 4 -11 18 -1 49 13
41 5 -3 4 -11 -3 -20z m77 14 c5 -7 3 -8 -6 -3 -7 4 -16 2 -21 -6 -7 -11 -9
-10 -9 4 0 19 25 23 36 5z m231 6 c-3 -3 -12 -4 -19 -1 -8 3 -5 6 6 6 11 1 17
-2 13 -5z m-187 -24 c0 -5 -5 -10 -11 -10 -5 0 -7 5 -4 10 3 6 8 10 11 10 2 0
4 -4 4 -10z m125 1 c-3 -5 -1 -12 5 -16 14 -9 3 -25 -17 -25 -10 0 -13 6 -9
16 4 12 2 15 -9 10 -8 -3 -15 -1 -15 4 0 5 10 11 23 13 12 2 23 5 25 6 2 0 1
-3 -3 -8z m-427 -7 c36 -10 25 -22 -15 -17 -44 5 -70 23 -32 23 13 0 34 -3 47
-6z m302 -34 c0 -5 -7 -10 -15 -10 -8 0 -15 5 -15 10 0 6 7 10 15 10 8 0 15
-4 15 -10z m-199 -37 c-9 -16 -10 -14 -11 12 0 21 3 26 11 18 8 -8 8 -16 0
-30z m249 27 c-20 -13 -33 -13 -25 0 3 6 14 10 23 10 15 0 15 -2 2 -10z m-460
-4 c0 -3 -4 -8 -10 -11 -5 -3 -10 -1 -10 4 0 6 5 11 10 11 6 0 10 -2 10 -4z
m120 -26 c0 -5 -5 -10 -11 -10 -5 0 -7 5 -4 10 3 6 8 10 11 10 2 0 4 -4 4 -10z
m-225 -29 c-3 -6 -11 -8 -17 -5 -6 4 -5 9 3 15 16 10 23 4 14 -10z m-124 -35
c6 -6 9 -5 9 2 0 7 5 12 10 12 16 0 12 -17 -6 -24 -22 -8 -46 18 -37 41 7 17
8 17 11 -2 2 -11 8 -24 13 -29z m339 40 c0 -3 -4 -8 -10 -11 -5 -3 -10 -1 -10
4 0 6 5 11 10 11 6 0 10 -2 10 -4z m-255 -38 c-4 -13 -13 -29 -20 -37 -11 -12
-10 -17 8 -32 12 -10 16 -18 10 -19 -7 0 -13 5 -13 10 0 6 -6 10 -14 10 -24 0
-28 32 -6 47 11 8 20 21 20 29 0 8 5 14 11 14 6 0 8 -9 4 -22z m115 12 c0 -5
-4 -10 -10 -10 -5 0 -10 5 -10 10 0 6 5 10 10 10 6 0 10 -4 10 -10z m147 -6
c-3 -3 -12 -4 -19 -1 -8 3 -5 6 6 6 11 1 17 -2 13 -5z m-207 -14 c0 -5 -5 -10
-11 -10 -5 0 -7 5 -4 10 3 6 8 10 11 10 2 0 4 -4 4 -10z m-170 -15 c0 -8 -4
-15 -10 -15 -5 0 -10 7 -10 15 0 8 5 15 10 15 6 0 10 -7 10 -15z m330 -15 c0
-5 -2 -10 -4 -10 -3 0 -8 5 -11 10 -3 6 -1 10 4 10 6 0 11 -4 11 -10z m-266
-59 c-8 -10 -32 22 -27 35 4 12 8 10 18 -8 6 -13 10 -25 9 -27z m-79 29 c-3
-5 -12 -10 -18 -10 -7 0 -6 4 3 10 19 12 23 12 15 0z m22 -14 c-4 -9 -1 -13 6
-10 17 6 39 -45 27 -65 -8 -14 -9 -13 -10 5 0 12 -12 29 -26 39 -20 13 -23 19
-13 31 15 18 23 18 16 0z m273 0 c0 -3 -4 -8 -10 -11 -5 -3 -10 -1 -10 4 0 6
5 11 10 11 6 0 10 -2 10 -4z m-340 -56 c0 -8 -7 -2 -15 14 -19 36 -19 45 0 20
8 -10 14 -26 15 -34z m30 35 c14 -16 10 -18 -14 -9 -9 3 -16 10 -16 15 0 14
16 11 30 -6z m240 -11 c0 -8 -5 -12 -10 -9 -6 4 -8 11 -5 16 9 14 15 11 15 -7z
m-135 -5 c11 -17 -1 -21 -15 -4 -8 9 -8 15 -2 15 6 0 14 -5 17 -11z m22 -31
c-3 -8 -6 -5 -6 6 -1 11 2 17 5 13 3 -3 4 -12 1 -19z m247 -9 c-8 -13 -24 -1
-24 18 0 13 3 13 15 3 8 -7 12 -16 9 -21z m-189 -9 c-3 -5 -14 -10 -23 -10
-15 0 -15 2 -2 10 20 13 33 13 25 0z m173 -35 c-2 -19 -6 -22 -19 -14 -23 12
-33 41 -17 50 18 11 38 -9 36 -36z m-393 5 c3 -5 1 -10 -4 -10 -6 0 -11 5 -11
10 0 6 2 10 4 10 3 0 8 -4 11 -10z m-25 -10 c0 -5 -4 -10 -10 -10 -5 0 -10 5
-10 10 0 6 5 10 10 10 6 0 10 -4 10 -10z m308 -3 c7 -5 9 -13 6 -19 -4 -7 -2
-8 4 -4 7 4 12 2 12 -5 0 -8 4 -8 15 1 12 10 18 10 32 -1 9 -8 18 -13 20 -11
7 7 63 -10 63 -19 0 -5 -16 -9 -36 -9 -20 0 -33 4 -29 10 3 5 0 7 -8 4 -8 -3
-18 -1 -21 5 -8 12 -56 -7 -56 -22 0 -5 -6 -5 -13 2 -8 6 -17 8 -20 4 -4 -3
-7 -1 -7 6 0 6 7 14 15 17 12 5 13 9 4 21 -9 10 -14 11 -19 2 -10 -15 -31 -2
-24 14 5 14 42 16 62 4z m-88 -34 c0 -30 -9 -27 -15 6 -2 11 0 21 6 21 5 0 9
-12 9 -27z m-80 7 c0 -5 -2 -10 -4 -10 -3 0 -8 5 -11 10 -3 6 -1 10 4 10 6 0
11 -4 11 -10z m111 -63 c-8 -8 -11 -7 -11 4 0 20 13 34 18 19 3 -7 -1 -17 -7
-23z m-377 8 c3 -8 1 -15 -4 -15 -6 0 -10 7 -10 15 0 8 2 15 4 15 2 0 6 -7 10
-15z m180 -6 c-6 -11 -24 -2 -24 11 0 5 7 7 15 4 8 -4 12 -10 9 -15z m-249 -9
c3 -5 -1 -10 -9 -10 -9 0 -16 5 -16 10 0 6 4 10 9 10 6 0 13 -4 16 -10z m338
-87 c-4 -11 -3 -14 5 -9 7 4 12 2 12 -3 0 -14 -37 -14 -45 -1 -8 13 3 30 20
30 9 0 12 -6 8 -17z m87 7 c0 -5 -4 -10 -10 -10 -5 0 -10 5 -10 10 0 6 5 10
10 10 6 0 10 -4 10 -10z m50 -9 c0 -24 -12 -32 -29 -21 -12 6 -11 11 0 24 19
21 29 20 29 -3z m-420 -5 c0 -3 -4 -8 -10 -11 -5 -3 -10 -1 -10 4 0 6 5 11 10
11 6 0 10 -2 10 -4z m159 -18 c1 -5 12 -18 24 -29 19 -17 19 -19 3 -19 -10 0
-20 8 -23 18 -2 10 -16 26 -31 36 l-27 17 25 -7 c14 -4 27 -11 29 -16z m-324
-7 c3 -5 1 -12 -5 -16 -13 -8 -50 3 -50 16 0 12 47 12 55 0z m522 3 c-3 -3
-12 -4 -19 -1 -8 3 -5 6 6 6 11 1 17 -2 13 -5z m-600 -56 c-3 -8 -6 -5 -6 6
-1 11 2 17 5 13 3 -3 4 -12 1 -19z m273 12 c0 -5 -5 -10 -11 -10 -5 0 -7 5 -4
10 3 6 8 10 11 10 2 0 4 -4 4 -10z m-196 -44 c-5 -14 -54 -20 -54 -7 0 5 10
15 23 24 22 15 40 6 31 -17z m306 24 c0 -5 -2 -10 -4 -10 -3 0 -8 5 -11 10 -3
6 -1 10 4 10 6 0 11 -4 11 -10z m-226 -31 c-40 -8 -52 1 -23 17 18 9 27 10 38
1 12 -10 9 -13 -15 -18z m209 -19 c-3 -12 -8 -19 -11 -16 -5 6 5 36 12 36 2 0
2 -9 -1 -20z m237 -1 c0 -5 -4 -9 -10 -9 -5 0 -10 7 -10 16 0 8 5 12 10 9 6
-3 10 -10 10 -16z m-143 -11 c2 -17 0 -19 -7 -8 -5 8 -6 18 -4 22 8 12 10 10
11 -14z m43 15 c0 -14 -19 -38 -25 -32 -8 8 5 39 16 39 5 0 9 -3 9 -7z m-403
-17 c-3 -7 -1 -18 5 -24 12 -12 -9 -11 -29 1 -16 10 -5 37 14 37 9 0 13 -6 10
-14z m58 4 c3 -5 -1 -10 -10 -10 -9 0 -13 5 -10 10 3 6 8 10 10 10 2 0 7 -4
10 -10z m265 -21 c0 -6 -4 -7 -10 -4 -5 3 -10 11 -10 16 0 6 5 7 10 4 6 -3 10
-11 10 -16z m-110 -43 c0 -4 -9 -1 -19 6 -11 7 -17 16 -15 20 5 8 34 -15 34
-26z m-222 0 c7 -4 11 -15 11 -24 -1 -15 -2 -15 -6 1 -4 15 -6 16 -26 2 -31
-21 -47 -19 -47 8 0 20 5 23 28 22 16 -1 34 -5 40 -9z m72 -1 c0 -11 -29 -11
-33 -1 -4 10 1 12 14 9 10 -3 19 -7 19 -8z m60 -25 c0 -5 -4 -10 -10 -10 -5 0
-10 5 -10 10 0 6 5 10 10 10 6 0 10 -4 10 -10z m174 -6 c11 -28 6 -39 -9 -20
-8 11 -15 23 -15 28 0 14 18 9 24 -8z m-124 -4 c11 -7 11 -10 2 -10 -8 0 -10
-5 -6 -12 5 -9 2 -9 -9 1 -30 24 -19 41 13 21z m-340 -10 c0 -5 -2 -10 -4 -10
-3 0 -8 5 -11 10 -3 6 -1 10 4 10 6 0 11 -4 11 -10z m80 0 c0 -5 -7 -7 -15 -4
-8 4 -15 8 -15 10 0 2 7 4 15 4 8 0 15 -4 15 -10z m175 0 c3 -5 1 -10 -4 -10
-6 0 -11 5 -11 10 0 6 2 10 4 10 3 0 8 -4 11 -10z m-72 -7 c-7 -2 -13 -12 -13
-20 0 -9 -3 -14 -6 -10 -10 10 4 37 18 36 10 0 10 -2 1 -6z m-185 -44 c2 -9
-4 -19 -13 -23 -13 -5 -14 -2 -4 15 9 18 8 20 -9 15 -11 -4 -23 -2 -27 4 -5 8
2 10 21 8 17 -2 30 -10 32 -19z m-111 -25 c-3 -3 -12 -4 -19 -1 -8 3 -5 6 6 6
11 1 17 -2 13 -5z m193 2 c0 -3 -4 -8 -10 -11 -5 -3 -10 -1 -10 4 0 6 5 11 10
11 6 0 10 -2 10 -4z m-161 -66 c0 -9 -5 -6 -11 8 -6 12 -15 22 -20 22 -5 0 -6
5 -3 11 8 13 35 -19 34 -41z m-52 -2 c-3 -8 -6 -5 -6 6 -1 11 2 17 5 13 3 -3
4 -12 1 -19z m136 2 c-3 -11 -7 -20 -9 -20 -2 0 -4 9 -4 20 0 11 4 20 9 20 5
0 7 -9 4 -20z m87 -17 c0 -26 -16 -12 -18 15 -1 21 0 23 8 12 5 -8 10 -21 10
-27z m-280 -9 c0 -8 -5 -12 -10 -9 -6 4 -8 11 -5 16 9 14 15 11 15 -7z m404
-15 c-22 -25 -29 -24 -30 4 -1 20 2 23 23 19 23 -4 23 -5 7 -23z m-104 -39 c0
-5 -7 -7 -15 -4 -8 4 -15 8 -15 10 0 2 7 4 15 4 8 0 15 -4 15 -10z m-82 -50
c-16 -25 -38 -34 -52 -20 -7 7 -6 10 2 10 6 0 9 7 5 18 -5 13 -3 14 7 5 15
-14 43 -6 33 10 -3 6 -1 7 5 3 9 -5 8 -12 0 -26z m72 -10 c0 -9 -38 -29 -44
-23 -14 14 -4 28 19 28 14 0 25 -2 25 -5z m-310 -15 c0 -8 -4 -15 -10 -15 -5
0 -10 7 -10 15 0 8 5 15 10 15 6 0 10 -7 10 -15z m330 -31 c0 -18 -27 -43 -46
-44 -6 0 -16 11 -22 25 l-12 25 29 -14 c31 -16 43 -13 34 10 -3 8 0 14 6 14 6
0 11 -7 11 -16z m-328 -62 c4 -16 1 -25 -13 -32 -15 -8 -19 -7 -19 4 0 8 -6
17 -12 19 -8 4 -4 8 10 12 24 8 30 25 8 25 -9 0 -12 7 -9 20 5 20 6 20 18 -2
6 -13 14 -34 17 -46z m184 33 c-3 -9 -11 -13 -16 -10 -8 5 -7 11 1 21 14 18
24 11 15 -11z m-50 -30 c-3 -8 -1 -16 5 -19 5 -2 4 -3 -3 -2 -7 1 -15 13 -16
25 -3 16 0 21 8 16 6 -4 9 -13 6 -20z m74 -17 c0 -5 -4 -8 -10 -8 -5 0 -10 10
-10 23 0 18 2 19 10 7 5 -8 10 -18 10 -22z m105 2 c-3 -5 -1 -10 4 -10 6 0 11
-4 11 -9 0 -5 -9 -7 -20 -4 -24 6 -27 33 -4 33 8 0 12 -4 9 -10z m-130 -29
c-6 -5 -25 10 -25 20 0 5 6 4 14 -3 8 -7 12 -15 11 -17z m113 -22 c-2 -6 -8
-10 -13 -10 -5 0 -11 4 -13 10 -2 6 4 11 13 11 9 0 15 -5 13 -11z m-318 -20
c0 -5 -7 -9 -15 -9 -15 0 -20 12 -9 23 8 8 24 -1 24 -14z m390 17 c0 -3 -4 -8
-10 -11 -5 -3 -10 -1 -10 4 0 6 5 11 10 11 6 0 10 -2 10 -4z m-440 -16 c0 -5
-4 -10 -10 -10 -5 0 -10 5 -10 10 0 6 5 10 10 10 6 0 10 -4 10 -10z m60 -40
c0 -5 -5 -10 -11 -10 -5 0 -7 5 -4 10 3 6 8 10 11 10 2 0 4 -4 4 -10z m360
-35 c0 -8 -4 -15 -10 -15 -5 0 -7 7 -4 15 4 8 8 15 10 15 2 0 4 -7 4 -15z
m-75 -5 c3 -5 1 -10 -4 -10 -6 0 -11 5 -11 10 0 6 2 10 4 10 3 0 8 -4 11 -10z
m-381 -163 c3 3 6 -1 6 -10 0 -9 -4 -17 -10 -17 -5 0 -10 5 -10 10 0 6 -7 10
-15 10 -8 0 -15 5 -15 10 0 7 6 7 19 1 10 -6 21 -7 25 -4z m366 -53 c0 -2 -9
-4 -21 -4 -11 0 -18 4 -14 10 5 8 35 3 35 -6z m-60 -70 c0 -2 -7 -4 -15 -4 -8
0 -15 4 -15 10 0 5 7 7 15 4 8 -4 15 -8 15 -10z m3 -35 c3 -12 3 -18 0 -15 -3
3 -14 1 -24 -4 -10 -6 -20 -6 -23 -1 -3 5 1 12 10 15 8 3 12 10 9 16 -3 5 0
10 8 10 8 0 17 -9 20 -21z m-392 -118 c25 -23 11 -35 -26 -21 -22 8 -24 12
-13 25 17 18 15 18 39 -4z m289 -25 c0 -11 -19 -15 -25 -6 -3 5 1 10 9 10 9 0
16 -2 16 -4z m50 -65 c0 -17 -18 -21 -24 -6 -3 9 0 15 9 15 8 0 15 -4 15 -9z
m-378 -33 c-7 -7 -12 -8 -12 -2 0 14 12 26 19 19 2 -3 -1 -11 -7 -17z m373 -8
c3 -6 -1 -7 -9 -4 -18 7 -21 14 -7 14 6 0 13 -4 16 -10z m-370 -20 c3 -5 1
-10 -4 -10 -6 0 -11 5 -11 10 0 6 2 10 4 10 3 0 8 -4 11 -10z m475 0 c0 -5 -5
-10 -11 -10 -5 0 -7 5 -4 10 3 6 8 10 11 10 2 0 4 -4 4 -10z m-73 -36 c-3 -3
-12 -4 -19 -1 -8 3 -5 6 6 6 11 1 17 -2 13 -5z m-466 -51 l24 -28 -30 25 c-16
14 -32 26 -34 28 -2 1 0 2 6 2 5 0 20 -12 34 -27z m409 1 c0 -8 -4 -12 -10 -9
-5 3 -10 13 -10 21 0 8 5 12 10 9 6 -3 10 -13 10 -21z m-390 -65 c0 -11 -27
-12 -34 -1 -2 4 4 9 15 9 10 1 19 -2 19 -8z m420 -59 c0 -14 -7 -20 -21 -20
-17 0 -19 3 -10 13 6 8 8 17 4 20 -3 4 1 7 10 7 10 0 17 -8 17 -20z m-104 -50
c-1 -35 -2 -35 -23 -14 -14 14 -14 16 3 29 11 8 19 15 20 15 1 0 1 -13 0 -30z
m-218 -55 c-3 -3 -9 2 -12 12 -6 14 -5 15 5 6 7 -7 10 -15 7 -18z m257 5 c3
-5 -1 -10 -10 -10 -9 0 -13 5 -10 10 3 6 8 10 10 10 2 0 7 -4 10 -10z m-265
-24 c0 -3 -4 -8 -10 -11 -5 -3 -10 -1 -10 4 0 6 5 11 10 11 6 0 10 -2 10 -4z
m-95 -16 c3 -6 -1 -7 -9 -4 -18 7 -21 14 -7 14 6 0 13 -4 16 -10z m181 -15
c-9 -9 -16 -13 -16 -8 0 12 22 34 28 28 2 -2 -3 -11 -12 -20z m194 10 c0 -8
-2 -15 -4 -15 -2 0 -6 7 -10 15 -3 8 -1 15 4 15 6 0 10 -7 10 -15z m-92 -40
c-3 -3 -9 2 -12 12 -6 14 -5 15 5 6 7 -7 10 -15 7 -18z m-81 -22 c-9 -8 -48 8
-42 18 4 5 14 5 26 -2 12 -6 18 -13 16 -16z m83 -32 c0 -13 -29 -8 -34 5 -3 7
2 10 15 7 10 -3 19 -9 19 -12z m-106 -16 c-4 -8 -10 -15 -15 -15 -5 0 -9 7 -9
15 0 8 7 15 15 15 9 0 12 -6 9 -15z m-247 -37 c2 -17 0 -19 -7 -8 -5 8 -6 18
-4 22 8 12 10 10 11 -14z m248 -7 c-3 -6 -11 -11 -17 -11 -6 0 -6 6 2 15 14
17 26 13 15 -4z m155 -40 c0 -12 -20 -36 -20 -24 0 6 -3 19 -6 27 -5 12 -2 15
10 10 9 -3 16 -9 16 -13z m-73 -41 c2 -23 -12 -35 -22 -20 -4 6 -1 17 5 25 16
19 15 19 17 -5z m68 -11 c11 -17 -1 -21 -15 -4 -8 9 -8 15 -2 15 6 0 14 -5 17
-11z m-455 -6 c0 -5 -4 -14 -9 -21 -7 -11 -9 -11 -14 1 -3 8 -3 18 0 21 9 8
23 7 23 -1z m428 -108 c-11 -11 -37 7 -31 22 5 13 8 13 21 -1 9 -9 13 -18 10
-21z m-518 -10 c0 -5 -5 -3 -10 5 -5 8 -10 20 -10 25 0 6 5 3 10 -5 5 -8 10
-19 10 -25z m556 -32 c-10 -10 -19 5 -10 18 6 11 8 11 12 0 2 -7 1 -15 -2 -18z
m-586 -3 c0 -5 -5 -10 -11 -10 -5 0 -7 5 -4 10 3 6 8 10 11 10 2 0 4 -4 4 -10z
m345 -20 c-3 -5 -12 -10 -18 -10 -7 0 -6 4 3 10 19 12 23 12 15 0z m60 -58
c-6 -7 -35 18 -35 31 0 5 9 2 20 -8 11 -10 18 -20 15 -23z m60 28 c-3 -5 0
-10 7 -12 6 -2 8 -10 4 -16 -5 -9 -11 -8 -22 3 -9 8 -22 15 -30 15 -26 0 -7
15 20 16 14 1 24 -2 21 -6z m-397 -55 c-3 -3 -9 2 -12 12 -6 14 -5 15 5 6 7
-7 10 -15 7 -18z m312 15 c0 -5 -5 -10 -11 -10 -5 0 -7 5 -4 10 3 6 8 10 11
10 2 0 4 -4 4 -10z m-430 -50 c0 -11 4 -20 10 -20 5 0 7 -7 4 -15 -7 -18 -21
-20 -21 -2 0 6 -3 22 -7 35 -5 13 -3 22 3 22 6 0 11 -9 11 -20z m80 -54 c0 -2
-7 -7 -16 -10 -8 -3 -12 -2 -9 4 6 10 25 14 25 6z m465 -6 c3 -5 1 -10 -4 -10
-6 0 -11 5 -11 10 0 6 2 10 4 10 3 0 8 -4 11 -10z m-530 -40 c-3 -5 -13 -10
-21 -10 -8 0 -12 5 -9 10 3 6 13 10 21 10 8 0 12 -4 9 -10z m565 6 c0 -3 -4
-8 -10 -11 -5 -3 -10 -1 -10 4 0 6 5 11 10 11 6 0 10 -2 10 -4z m-550 -35 c0
-12 -20 -25 -27 -18 -7 7 6 27 18 27 5 0 9 -4 9 -9z m82 -16 c3 -13 1 -22 -3
-19 -9 5 -13 44 -5 44 2 0 6 -11 8 -25z m438 9 c0 -8 5 -12 10 -9 6 3 10 1 10
-5 0 -7 -8 -9 -20 -5 -14 4 -20 2 -20 -8 0 -7 -7 -14 -15 -14 -20 0 -19 12 2
37 21 24 33 26 33 4z m53 -14 c-3 -11 -9 -17 -14 -14 -14 8 -10 34 5 34 9 0
12 -7 9 -20z m-560 -45 c-3 -9 -8 -14 -10 -11 -3 3 -2 9 2 15 9 16 15 13 8 -4z
m60 -46 c-5 -19 -7 -19 -15 -5 -10 18 -2 39 12 31 4 -3 6 -15 3 -26z m-148 10
c12 -19 -5 -23 -22 -6 -16 16 -16 17 -1 17 9 0 20 -5 23 -11z m495 -9 c0 -5
-2 -10 -4 -10 -3 0 -8 5 -11 10 -3 6 -1 10 4 10 6 0 11 -4 11 -10z m43 -55
c-7 -21 -13 -19 -13 6 0 11 4 18 10 14 5 -3 7 -12 3 -20z m32 -4 c3 -5 1 -12
-5 -16 -5 -3 -10 1 -10 9 0 18 6 21 15 7z m-519 -46 c-4 -14 -2 -25 4 -25 5 0
10 -8 10 -17 0 -14 -2 -15 -9 -4 -7 11 -10 9 -15 -7 -4 -11 -13 -23 -21 -26
-12 -4 -14 2 -11 31 3 20 11 40 18 44 7 5 9 9 5 9 -12 0 2 20 15 20 6 0 8 -10
4 -25z m112 -30 c2 -10 -1 -21 -8 -25 -18 -11 -50 0 -50 17 0 9 6 13 15 9 9
-3 15 0 15 10 0 21 24 12 28 -11z m-90 -77 c-13 -7 -28 8 -28 29 0 9 7 7 20
-4 14 -12 16 -19 8 -25z m157 -5 c5 -15 4 -16 -6 -5 -18 17 -32 15 -25 -3 6
-17 -9 -20 -20 -4 -7 12 12 29 32 29 7 0 15 -8 19 -17z m-125 -13 c0 -5 -2
-10 -4 -10 -3 0 -8 5 -11 10 -3 6 -1 10 4 10 6 0 11 -4 11 -10z m170 6 c0 -3
-4 -8 -10 -11 -5 -3 -10 -1 -10 4 0 6 5 11 10 11 6 0 10 -2 10 -4z m-100 -26
c0 -5 -2 -10 -4 -10 -3 0 -8 5 -11 10 -3 6 -1 10 4 10 6 0 11 -4 11 -10z m334
-36 c7 -18 0 -34 -15 -34 -5 0 -9 11 -9 25 0 28 15 34 24 9z m136 -24 c0 -6
-9 -10 -20 -10 -11 0 -20 5 -20 11 0 7 -10 5 -25 -5 -13 -9 -27 -16 -30 -16
-13 0 -3 24 16 41 19 17 24 17 50 3 16 -8 29 -19 29 -24z m-610 -15 c-14 -17
-30 -20 -30 -5 0 6 7 10 15 10 8 0 15 5 15 12 0 6 3 8 6 5 4 -4 1 -13 -6 -22z
m130 15 c0 -5 -5 -10 -11 -10 -5 0 -7 5 -4 10 3 6 8 10 11 10 2 0 4 -4 4 -10z
m135 0 c3 -5 -1 -10 -10 -10 -9 0 -13 5 -10 10 3 6 8 10 10 10 2 0 7 -4 10
-10z m-98 -27 c-14 -14 -19 -15 -29 -4 -11 10 -10 11 3 6 10 -4 19 0 23 11 4
9 9 14 13 10 4 -3 -1 -14 -10 -23z m326 -10 c-21 -8 -15 -40 9 -46 12 -4 19
-9 15 -13 -9 -10 -57 24 -57 40 0 14 15 24 35 24 6 0 4 -2 -2 -5z m-203 -13
c0 -5 -5 -10 -11 -10 -5 0 -7 5 -4 10 3 6 8 10 11 10 2 0 4 -4 4 -10z m-192
-40 c7 0 12 5 12 10 0 6 5 10 10 10 16 0 11 -14 -10 -28 -16 -10 -23 -9 -40 5
-11 10 -20 22 -20 27 0 5 8 2 18 -7 10 -10 24 -17 30 -17z m176 -6 c-6 -22 -4
-25 7 -19 12 8 12 6 0 -8 -7 -9 -17 -17 -22 -17 -10 0 -12 53 -2 63 15 15 23
5 17 -19z m198 -8 c4 -6 8 -18 8 -26 0 -9 -5 -7 -16 8 -8 12 -22 22 -30 22 -8
0 -14 5 -14 11 0 13 42 1 52 -15z m-347 -26 c0 -7 -6 -15 -12 -17 -8 -3 -13 4
-13 17 0 13 5 20 13 18 6 -3 12 -11 12 -18z m420 -30 c-3 -5 -13 -10 -21 -10
-8 0 -12 5 -9 10 3 6 13 10 21 10 8 0 12 -4 9 -10z m-209 -35 c4 -8 10 -13 14
-10 5 3 11 1 15 -5 3 -5 -2 -10 -12 -10 -15 0 -16 -2 -3 -10 8 -5 12 -12 8
-15 -4 -4 -14 5 -24 20 -10 15 -23 24 -31 20 -17 -6 -36 3 -29 13 9 14 57 12
62 -3z m-162 -21 c3 -8 2 -12 -4 -9 -6 3 -10 10 -10 16 0 14 7 11 14 -7z m146
-14 c0 -5 -2 -10 -4 -10 -3 0 -8 5 -11 10 -3 6 -1 10 4 10 6 0 11 -4 11 -10z
m-100 -14 c0 -3 -4 -8 -10 -11 -5 -3 -10 -1 -10 4 0 6 5 11 10 11 6 0 10 -2
10 -4z m320 -30 c0 -2 -9 -6 -20 -9 -11 -3 -20 -1 -20 4 0 5 9 9 20 9 11 0 20
-2 20 -4z m-140 -10 c0 -3 -4 -8 -10 -11 -5 -3 -10 -1 -10 4 0 6 5 11 10 11 6
0 10 -2 10 -4z m-290 -31 c0 -8 -4 -15 -10 -15 -5 0 -7 7 -4 15 4 8 8 15 10
15 2 0 4 -7 4 -15z m75 5 c3 -5 1 -10 -4 -10 -6 0 -11 5 -11 10 0 6 2 10 4 10
3 0 8 -4 11 -10z m385 -4 c0 -8 -4 -17 -9 -20 -10 -7 -23 19 -14 28 11 11 23
6 23 -8z m70 -26 c0 -5 -7 -10 -15 -10 -8 0 -15 5 -15 10 0 6 7 10 15 10 8 0
15 -4 15 -10z m-704 -12 c-19 -11 -19 -11 0 -25 16 -12 17 -15 4 -23 -22 -14
-27 -12 -33 12 -7 25 8 48 32 48 13 -1 13 -3 -3 -12z m816 -28 c1 -11 2 -28 2
-37 1 -10 6 -21 11 -25 6 -5 5 -12 -5 -17 -19 -13 -20 -12 -26 48 -3 31 -1 51
6 51 5 0 11 -9 12 -20z m-161 -44 c17 -3 28 -10 24 -15 -12 -20 -66 12 -64 38
1 15 2 15 6 0 2 -9 18 -19 34 -23z m-553 -13 l26 -26 -24 6 c-14 4 -28 7 -32
7 -9 0 -11 40 -3 40 3 0 18 -12 33 -27z m87 -3 c3 -5 1 -10 -4 -10 -6 0 -11 5
-11 10 0 6 2 10 4 10 3 0 8 -4 11 -10z m425 -10 c0 -5 -7 -10 -16 -10 -8 0
-12 5 -9 10 3 6 10 10 16 10 5 0 9 -4 9 -10z m174 -8 c-12 -8 -28 -43 -26 -54
1 -5 -3 -8 -8 -8 -6 0 -8 11 -4 28 7 27 20 42 39 42 6 0 6 -3 -1 -8z m-644
-21 c0 -12 -9 -20 -25 -23 -30 -6 -34 8 -5 17 11 3 20 11 20 16 0 5 2 9 5 9 3
0 5 -8 5 -19z m100 -27 c0 -8 -4 -14 -10 -14 -5 0 -10 9 -10 21 0 11 5 17 10
14 6 -3 10 -13 10 -21z m480 -4 c0 -5 -4 -10 -10 -10 -5 0 -10 5 -10 10 0 6 5
10 10 10 6 0 10 -4 10 -10z m80 -5 c-7 -8 -16 -12 -21 -9 -13 8 -1 24 18 24
13 0 13 -3 3 -15z m-620 -11 c0 -8 -5 -12 -10 -9 -6 4 -8 11 -5 16 9 14 15 11
15 -7z m100 12 c0 -2 -7 -9 -15 -16 -13 -11 -14 -10 -9 4 5 14 24 23 24 12z
m420 -16 c0 -5 -4 -10 -10 -10 -5 0 -10 5 -10 10 0 6 5 10 10 10 6 0 10 -4 10
-10z m150 -5 c10 -12 10 -19 2 -27 -9 -9 -17 -7 -32 10 -11 11 -20 24 -20 27
0 12 38 4 50 -10z m-720 -34 c0 -5 -7 -14 -15 -21 -10 -9 -15 -9 -15 -1 0 6 5
11 11 11 5 0 7 5 4 10 -3 6 -1 10 4 10 6 0 11 -4 11 -9z m455 -11 c-3 -5 -10
-10 -16 -10 -5 0 -9 5 -9 10 0 6 7 10 16 10 8 0 12 -4 9 -10z m283 -27 c-4
-21 -23 -16 -24 6 -1 13 4 17 13 14 8 -3 13 -12 11 -20z m-73 -48 c0 -35 -3
-45 -15 -43 -8 2 -15 9 -15 15 0 7 -8 18 -19 26 -17 13 -16 14 15 30 19 9 34
17 34 17 0 0 0 -20 0 -45z m43 -11 c0 -13 -4 -24 -7 -24 -15 0 -28 23 -24 40
7 26 31 14 31 -16z m-214 -35 c-3 -5 -10 -7 -15 -3 -5 3 -7 10 -3 15 3 5 10 7
15 3 5 -3 7 -10 3 -15z m56 -39 c0 -5 -4 -10 -10 -10 -5 0 -10 5 -10 10 0 6 5
10 10 10 6 0 10 -4 10 -10z m27 -60 c-4 -14 0 -19 12 -17 9 1 17 -2 19 -7 1
-5 -9 -10 -23 -12 -15 -2 -23 1 -19 7 3 6 -3 13 -15 16 -12 3 -21 10 -21 15 0
6 7 8 15 5 8 -4 17 -2 20 3 10 17 18 11 12 -10z m-124 -20 c-3 -11 -7 -20 -9
-20 -2 0 -4 9 -4 20 0 11 4 20 9 20 5 0 7 -9 4 -20z m97 -15 c0 -8 -7 -15 -15
-15 -9 0 -12 6 -9 15 4 8 10 15 15 15 5 0 9 -7 9 -15z m-23 -41 c-3 -3 -12 -4
-19 -1 -8 3 -5 6 6 6 11 1 17 -2 13 -5z m73 -24 c0 -5 -2 -10 -4 -10 -3 0 -8
5 -11 10 -3 6 -1 10 4 10 6 0 11 -4 11 -10z m74 -19 c3 -5 -1 -12 -10 -15 -20
-8 -29 -1 -19 13 8 13 22 14 29 2z m-69 -80 c3 -5 1 -12 -5 -16 -5 -3 -10 1
-10 9 0 18 6 21 15 7z m48 -75 c6 -16 -2 -28 -14 -20 -12 7 -11 34 0 34 5 0
11 -6 14 -14z m52 -6 c-3 -5 -12 -10 -18 -10 -7 0 -6 4 3 10 19 12 23 12 15 0z
m89 -156 c9 -22 8 -24 -9 -18 -8 4 -15 12 -15 20 0 19 16 18 24 -2z m22 -109
c-9 -9 -16 -13 -16 -8 0 12 22 34 28 28 2 -2 -3 -11 -12 -20z m139 -25 c3 -5
-1 -10 -9 -10 -9 0 -16 5 -16 10 0 6 4 10 9 10 6 0 13 -4 16 -10z m-15 -185
c11 -21 11 -27 0 -38 -10 -9 -11 -9 -6 1 4 7 1 15 -8 18 -16 6 -23 44 -8 44 5
0 15 -11 22 -25z m-20 -46 c0 -14 -17 -10 -23 5 -4 10 -1 13 9 9 7 -3 14 -9
14 -14z m135 3 c-3 -3 -11 0 -18 7 -9 10 -8 11 6 5 10 -3 15 -9 12 -12z m-55
-6 c0 -9 -9 -14 -20 -13 -20 1 -25 9 -13 20 12 12 33 7 33 -7z m63 -33 c-7
-29 -31 -55 -43 -48 -8 5 -8 11 1 21 6 8 8 14 4 14 -4 0 -2 7 5 15 17 21 39
19 33 -2z m-53 -12 c0 -5 -7 -11 -15 -15 -9 -3 -15 0 -15 9 0 8 7 15 15 15 8
0 15 -4 15 -9z m84 -33 c-3 -4 -12 -8 -20 -8 -8 0 -14 4 -14 8 0 4 9 8 19 8
11 0 17 -4 15 -8z m-84 -7 c0 -5 -6 -14 -14 -20 -12 -10 -13 -8 -9 8 5 21 23
30 23 12z m40 -21 c0 -5 -4 -10 -9 -10 -6 0 -13 5 -16 10 -3 6 1 10 9 10 9 0
16 -4 16 -10z m20 -48 c3 -2 -1 -7 -8 -9 -6 -3 -10 -9 -6 -14 3 -5 -4 -9 -16
-9 -17 0 -20 4 -15 21 5 16 4 19 -5 14 -9 -5 -11 -4 -6 4 7 11 43 7 56 -7z
m-120 -29 c0 -10 -4 -14 -8 -8 -4 6 -11 13 -16 18 -5 4 -2 7 7 7 10 0 17 -8
17 -17z m120 -28 c-7 -9 -15 -13 -19 -10 -3 3 1 10 9 15 21 14 24 12 10 -5z
m-50 -39 c0 -3 -4 -8 -10 -11 -5 -3 -10 -1 -10 4 0 6 5 11 10 11 6 0 10 -2 10
-4z m125 -26 c3 -5 1 -10 -4 -10 -6 0 -11 5 -11 10 0 6 2 10 4 10 3 0 8 -4 11
-10z m105 -10 c0 -5 -2 -10 -4 -10 -3 0 -8 5 -11 10 -3 6 -1 10 4 10 6 0 11
-4 11 -10z m-30 -29 c0 -17 -18 -21 -24 -6 -3 9 0 15 9 15 8 0 15 -4 15 -9z
m-60 -11 c0 -5 -4 -10 -9 -10 -6 0 -13 5 -16 10 -3 6 1 10 9 10 9 0 16 -4 16
-10z m46 -47 c-10 -10 -19 5 -10 18 6 11 8 11 12 0 2 -7 1 -15 -2 -18z m42 -8
c-3 -3 -9 2 -12 12 -6 14 -5 15 5 6 7 -7 10 -15 7 -18z m52 -15 c0 -5 -4 -10
-10 -10 -5 0 -10 5 -10 10 0 6 5 10 10 10 6 0 10 -4 10 -10z m-24 -21 c7 -2 3
-12 -9 -24 -19 -18 -20 -19 -13 -1 5 14 2 17 -9 12 -9 -3 -15 0 -15 8 0 16 22
27 30 16 3 -4 10 -9 16 -11z m64 -59 c0 -5 -5 -10 -11 -10 -5 0 -7 5 -4 10 3
6 8 10 11 10 2 0 4 -4 4 -10z m205 -29 c3 -5 0 -13 -6 -17 -6 -3 -14 -1 -18 5
-4 6 -16 9 -27 5 -16 -5 -16 -4 -4 5 19 13 47 14 55 2z m-90 -66 c0 -25 -5
-37 -18 -41 -9 -3 -15 -9 -13 -13 3 -4 -6 -8 -20 -9 -13 -1 -24 3 -24 8 0 6 9
10 20 10 21 0 29 20 8 20 -8 1 -6 6 5 14 10 8 17 18 16 22 -3 17 1 24 14 24 7
0 12 -14 12 -35z m-115 -22 c0 -13 -3 -13 -15 -3 -8 7 -12 16 -9 21 8 13 24 1
24 -18z m50 23 c0 -3 -4 -8 -10 -11 -5 -3 -10 -1 -10 4 0 6 5 11 10 11 6 0 10
-2 10 -4z m160 -26 c12 -8 11 -10 -7 -10 -12 0 -25 5 -28 10 -8 13 15 13 35 0z
m-325 -20 c3 -5 1 -10 -4 -10 -6 0 -11 5 -11 10 0 6 2 10 4 10 3 0 8 -4 11
-10z m475 -20 c0 -6 -13 -10 -30 -10 -16 0 -30 5 -30 10 0 6 -8 11 -17 11 -10
1 -4 5 12 8 31 8 65 -3 65 -19z m30 -10 c0 -11 -2 -20 -4 -20 -2 0 -6 9 -9 20
-3 11 -1 20 4 20 5 0 9 -9 9 -20z m4630 -10 c13 -25 13 -25 -8 -6 -12 10 -19
23 -16 28 7 11 7 11 24 -22z m-4856 -20 c-6 -6 -19 -7 -30 -3 -17 6 -17 8 6
13 29 8 38 4 24 -10z m91 0 c-3 -5 -12 -10 -18 -10 -7 0 -6 4 3 10 19 12 23
12 15 0z m-277 -24 c-7 -8 -15 -12 -17 -11 -5 6 10 25 20 25 5 0 4 -6 -3 -14z
m449 -11 c-9 -7 -14 -15 -10 -18 3 -4 1 -7 -5 -7 -13 0 -15 10 -6 34 3 8 12
12 21 9 14 -6 14 -7 0 -18z m116 -6 c-17 -17 -37 -1 -22 17 8 10 15 12 23 4 7
-7 7 -13 -1 -21z m-423 -59 c0 -5 -7 -7 -15 -4 -8 4 -15 8 -15 10 0 2 7 4 15
4 8 0 15 -4 15 -10z m390 0 c0 -5 -2 -10 -4 -10 -3 0 -8 5 -11 10 -3 6 -1 10
4 10 6 0 11 -4 11 -10z m-180 -4 c0 -11 -19 -15 -25 -6 -3 5 1 10 9 10 9 0 16
-2 16 -4z m385 -29 c-5 -18 -12 -24 -22 -20 -13 5 -15 0 -11 -25 6 -40 -6 -41
-22 -2 -10 24 -10 33 0 45 11 13 15 13 21 3 7 -10 9 -9 9 4 0 9 6 18 13 21 17
6 19 3 12 -26z m-195 -7 c0 -5 -4 -10 -10 -10 -5 0 -10 5 -10 10 0 6 5 10 10
10 6 0 10 -4 10 -10z m4153 -55 c4 -8 1 -17 -6 -21 -7 -4 -9 -4 -5 1 4 4 0 14
-10 21 -15 12 -15 13 -1 14 9 0 19 -7 22 -15z m-4023 1 c0 -3 -4 -8 -10 -11
-5 -3 -10 -1 -10 4 0 6 5 11 10 11 6 0 10 -2 10 -4z m150 -20 c0 -2 -7 -6 -15
-10 -8 -3 -15 -1 -15 4 0 6 7 10 15 10 8 0 15 -2 15 -4z m3837 -18 c-3 -8 -6
-5 -6 6 -1 11 2 17 5 13 3 -3 4 -12 1 -19z m-3990 -15 c-3 -3 -11 -2 -17 2 -9
6 -9 10 1 16 14 8 27 -7 16 -18z m3919 15 c4 -7 3 -8 -5 -4 -6 4 -14 0 -17 -8
-3 -9 -10 -13 -16 -10 -5 3 -4 11 3 20 14 17 25 18 35 2z m-3780 -35 c-10 -10
-19 5 -10 18 6 11 8 11 12 0 2 -7 1 -15 -2 -18z m64 -13 c0 -5 -8 -10 -17 -10
-15 0 -16 2 -3 10 19 12 20 12 20 0z m173 -7 c-3 -7 -9 -13 -14 -13 -5 0 -9 6
-9 13 0 8 6 14 14 14 8 0 12 -6 9 -14z m3517 7 c3 0 -5 -5 -18 -10 -23 -10
-52 -4 -52 10 0 6 52 7 70 0z m-3910 -10 c0 -5 -4 -10 -10 -10 -5 0 -10 5 -10
10 0 6 5 10 10 10 6 0 10 -4 10 -10z m305 -29 c-3 -6 -11 -8 -17 -5 -6 4 -5 9
3 15 16 10 23 4 14 -10z m43 -11 c0 -17 -4 -28 -9 -25 -10 7 -12 38 -2 48 10
10 10 10 11 -23z m3359 0 c0 -26 -4 -30 -26 -29 -17 1 -20 3 -8 6 9 2 17 12
17 22 0 15 8 31 15 31 1 0 2 -13 2 -30z m-3272 0 c-3 -5 -10 -10 -16 -10 -5 0
-9 5 -9 10 0 6 7 10 16 10 8 0 12 -4 9 -10z m3435 -10 c0 -11 -7 -20 -15 -20
-18 0 -19 6 -2 25 16 19 17 18 17 -5z m-3318 -23 c4 -6 4 -16 0 -22 -3 -5 1
-4 10 3 15 12 48 7 48 -8 0 -5 -14 -11 -30 -15 -24 -5 -36 -1 -59 21 -17 15
-27 32 -25 36 7 11 46 -1 56 -15z m-97 3 c3 -5 -1 -10 -10 -10 -9 0 -13 5 -10
10 3 6 8 10 10 10 2 0 7 -4 10 -10z m195 -16 c0 -2 -7 -4 -15 -4 -8 0 -15 4
-15 10 0 5 7 7 15 4 8 -4 15 -8 15 -10z m-178 -58 c-3 -5 -9 -1 -13 10 -12 31
-10 39 5 19 8 -11 12 -24 8 -29z m128 14 c0 -5 -2 -10 -4 -10 -3 0 -8 5 -11
10 -3 6 -1 10 4 10 6 0 11 -4 11 -10z m164 -19 c4 -5 -5 -4 -19 2 -14 7 -25
16 -25 20 0 9 36 -9 44 -22z m2791 9 c3 -5 1 -10 -4 -10 -6 0 -11 5 -11 10 0
6 2 10 4 10 3 0 8 -4 11 -10z m185 -9 c0 -5 -7 -12 -16 -15 -14 -5 -15 -4 -4
9 14 17 20 19 20 6z m-192 -34 c-13 -13 -26 -20 -29 -15 -3 5 -14 6 -25 2 -11
-4 -15 -3 -11 2 7 8 61 30 80 33 4 0 -3 -10 -15 -22z m-283 -14 c-27 -19 -38
-16 -17 5 9 11 21 17 26 14 5 -3 1 -11 -9 -19z m425 23 c0 -3 -4 -8 -10 -11
-5 -3 -10 -1 -10 4 0 6 5 11 10 11 6 0 10 -2 10 -4z m-466 -53 c14 -27 25 -42
26 -35 0 15 20 16 20 1 0 -6 -8 -18 -17 -27 -12 -12 -17 -14 -21 -4 -2 7 -11
20 -20 28 -14 15 -17 15 -30 -2 -12 -16 -14 -16 -9 -2 3 9 9 33 13 52 3 20 8
36 10 36 2 0 15 -21 28 -47z m409 34 c3 -8 -1 -14 -9 -14 -8 0 -14 6 -14 14 0
7 4 13 9 13 5 0 11 -6 14 -13z m-1265 -53 c-16 -17 -28 -22 -32 -15 -4 6 0 11
8 11 11 0 16 10 16 32 0 31 1 31 17 15 16 -16 16 -19 -9 -43z m483 32 c-6 -7
-8 -15 -5 -19 3 -3 -1 -4 -10 -3 -26 4 -30 16 -10 30 22 16 40 10 25 -8z m566
4 c-1 -11 -5 -20 -9 -20 -4 0 -7 -5 -5 -12 1 -6 -10 -13 -25 -14 -16 -2 -28 2
-28 7 0 6 4 8 9 4 19 -11 23 17 5 31 -13 11 -14 14 -4 11 8 -2 24 -1 35 4 11
4 21 8 22 8 1 1 1 -8 0 -19z m-2752 0 c3 -6 -1 -7 -9 -4 -18 7 -21 14 -7 14 6
0 13 -4 16 -10z m2625 0 c0 -5 -5 -10 -11 -10 -5 0 -7 5 -4 10 3 6 8 10 11 10
2 0 4 -4 4 -10z m-880 -32 c0 -16 -3 -19 -11 -11 -6 6 -8 16 -5 22 11 17 16
13 16 -11z m525 -18 c21 0 40 -39 26 -53 -8 -8 -11 -7 -11 5 0 20 -38 44 -67
42 -13 -1 -23 3 -23 7 0 5 7 9 15 9 8 0 15 8 15 17 0 14 3 13 16 -5 8 -12 21
-22 29 -22z m-347 -11 c-3 -8 -7 -3 -11 10 -4 17 -3 21 5 13 5 -5 8 -16 6 -23z
m-1713 11 c3 -5 1 -10 -4 -10 -6 0 -11 5 -11 10 0 6 2 10 4 10 3 0 8 -4 11
-10z m155 1 c0 -5 -11 -12 -25 -15 -16 -4 -23 -11 -19 -18 4 -7 3 -8 -5 -4
-18 11 6 35 47 45 1 1 2 -3 2 -8z m1287 -28 c1 -24 1 -25 -7 -8 -11 26 -12 35
-2 35 4 0 8 -12 9 -27z m-676 -13 c10 0 19 5 19 11 0 5 4 8 9 5 5 -3 7 -15 4
-26 -3 -12 -8 -18 -11 -15 -3 2 -11 0 -19 -6 -8 -7 -13 -8 -13 -1 0 5 -9 12
-20 15 -11 3 -20 11 -20 19 0 10 3 9 10 -2 8 -12 10 -10 11 10 1 17 3 19 6 8
2 -10 13 -18 24 -18z m829 9 c0 -6 -4 -7 -10 -4 -5 3 -10 11 -10 16 0 6 5 7
10 4 6 -3 10 -11 10 -16z m-1387 -7 c24 -4 38 -20 20 -23 -36 -6 -58 -2 -55 9
3 15 -10 16 -26 0 -13 -13 -15 -8 -6 17 4 10 12 14 23 9 9 -4 28 -9 44 -12z
m1287 14 c0 -3 -4 -8 -10 -11 -5 -3 -10 -1 -10 4 0 6 5 11 10 11 6 0 10 -2 10
-4z m46 -11 c10 -24 -3 -45 -22 -38 -15 6 -15 7 2 20 16 12 16 13 1 13 -9 0
-17 5 -17 10 0 16 30 12 36 -5z m103 1 c14 -8 32 -11 40 -8 9 3 12 1 7 -6 -4
-8 0 -12 11 -13 14 0 13 -3 -6 -12 -19 -9 -25 -9 -29 1 -3 9 -7 10 -17 2 -10
-8 -15 -6 -20 9 -3 12 -11 21 -16 21 -5 0 -9 5 -9 10 0 13 10 12 39 -4z m403
-6 c12 -11 17 -20 12 -20 -6 0 -16 6 -22 12 -10 10 -15 10 -21 -1 -7 -10 -13
-11 -27 -2 -18 10 -18 10 4 11 12 0 22 5 22 10 0 15 8 12 32 -10z m238 0 c0
-5 -4 -10 -10 -10 -5 0 -10 5 -10 10 0 6 5 10 10 10 6 0 10 -4 10 -10z m-2025
-30 c3 -5 1 -10 -4 -10 -6 0 -11 5 -11 10 0 6 2 10 4 10 3 0 8 -4 11 -10z
m190 -10 c3 -5 1 -10 -4 -10 -6 0 -11 5 -11 10 0 6 2 10 4 10 3 0 8 -4 11 -10z
m1539 -29 c-8 -9 -22 12 -17 26 6 15 7 14 13 -3 4 -10 6 -21 4 -23z m-1758 2
c-10 -10 -19 5 -10 18 6 11 8 11 12 0 2 -7 1 -15 -2 -18z m514 8 c0 -5 -9 -11
-20 -14 -11 -3 -20 -1 -20 3 0 5 8 11 18 13 9 3 18 5 20 6 1 0 2 -3 2 -8z
m935 -1 c-3 -5 -12 -10 -18 -10 -7 0 -6 4 3 10 19 12 23 12 15 0z m-1370 -10
c3 -6 -1 -7 -9 -4 -18 7 -21 14 -7 14 6 0 13 -4 16 -10z m1002 4 c-3 -3 -12
-4 -19 -1 -8 3 -5 6 6 6 11 1 17 -2 13 -5z m509 -20 c17 -14 17 -15 1 -10 -10
3 -25 6 -33 6 -9 0 -12 5 -9 10 9 14 18 13 41 -6z m-746 -23 c0 -4 -5 -12 -12
-19 -9 -9 -14 -7 -24 6 -19 25 -17 30 11 24 14 -2 25 -7 25 -11z m135 9 c3 -5
1 -10 -4 -10 -6 0 -11 5 -11 10 0 6 2 10 4 10 3 0 8 -4 11 -10z m55 -5 c0 -11
-29 -11 -33 -1 -4 10 1 12 14 9 10 -3 19 -7 19 -8z m877 4 c-14 -8 -22 -8 -30
0 -8 8 -3 11 19 11 25 -1 27 -2 11 -11z m-1210 -56 c-11 -10 -26 8 -20 23 5
15 7 14 15 -1 6 -9 7 -19 5 -22z m103 -4 c0 -11 5 -17 10 -14 6 3 10 -1 10 -9
0 -35 -46 -4 -56 38 -6 26 -5 27 15 17 11 -7 21 -21 21 -32z m164 -1 c-3 -5
-12 -1 -20 9 -20 27 -17 39 6 18 11 -10 17 -22 14 -27z m-123 -41 c-10 -9 -11
-8 -5 6 3 10 9 15 12 12 3 -3 0 -11 -7 -18z m69 -7 c0 -5 -8 -10 -17 -10 -15
0 -16 2 -3 10 19 12 20 12 20 0z m-65 -30 c-10 -11 -21 -18 -23 -15 -3 3 3 12
14 20 27 20 30 18 9 -5z"/>
<path d="M2546 7855 c4 -8 8 -15 10 -15 2 0 4 7 4 15 0 8 -4 15 -10 15 -5 0
-7 -7 -4 -15z"/>
<path d="M2328 7732 c-10 -2 -18 -8 -18 -13 0 -13 27 -11 35 2 9 13 4 16 -17
11z"/>
<path d="M1718 7253 c7 -3 16 -2 19 1 4 3 -2 6 -13 5 -11 0 -14 -3 -6 -6z"/>
<path d="M2404 7225 c4 -33 12 -41 29 -27 8 7 18 8 23 4 4 -4 2 1 -5 10 -7 10
-17 15 -22 12 -5 -3 -9 2 -9 10 0 9 -4 16 -9 16 -5 0 -8 -11 -7 -25z"/>
<path d="M2475 7221 c-5 -10 -4 -16 3 -19 7 -2 10 -8 7 -12 -9 -15 10 -18 23
-4 10 12 10 14 -2 14 -8 0 -16 8 -18 18 -3 14 -5 15 -13 3z"/>
<path d="M2333 7203 c-20 -7 -15 -22 6 -20 11 0 17 6 14 14 -3 7 -6 13 -7 12
0 0 -7 -3 -13 -6z"/>
<path d="M2376 7185 c4 -8 10 -12 15 -9 11 6 2 24 -11 24 -5 0 -7 -7 -4 -15z"/>
<path d="M2421 7158 c-1 -9 -4 -23 -7 -31 -3 -10 3 -16 20 -19 18 -4 26 -1 26
8 0 8 -5 14 -10 14 -6 0 -15 10 -20 23 -6 15 -9 17 -9 5z"/>
<path d="M2460 7151 c0 -5 6 -11 13 -14 8 -3 14 1 14 9 0 8 -6 14 -14 14 -7 0
-13 -4 -13 -9z"/>
<path d="M1560 7129 c0 -5 5 -7 10 -4 6 3 10 8 10 11 0 2 -4 4 -10 4 -5 0 -10
-5 -10 -11z"/>
<path d="M1535 7111 c-3 -5 -1 -12 5 -16 5 -3 10 1 10 9 0 18 -6 21 -15 7z"/>
<path d="M2225 7110 c-3 -5 1 -10 9 -10 9 0 16 5 16 10 0 6 -4 10 -9 10 -6 0
-13 -4 -16 -10z"/>
<path d="M2385 7079 c-10 -15 3 -25 16 -12 7 7 7 13 1 17 -6 3 -14 1 -17 -5z"/>
<path d="M2256 7061 c-3 -5 1 -12 10 -15 8 -3 12 -10 9 -16 -9 -15 11 -12 24
3 8 10 7 17 -1 25 -14 14 -35 16 -42 3z"/>
<path d="M1490 7050 c0 -5 5 -10 11 -10 5 0 7 5 4 10 -3 6 -8 10 -11 10 -2 0
-4 -4 -4 -10z"/>
<path d="M1425 7030 c-3 -5 -1 -10 4 -10 6 0 11 5 11 10 0 6 -2 10 -4 10 -3 0
-8 -4 -11 -10z"/>
<path d="M1420 7001 c0 -10 36 -21 44 -14 3 3 3 10 0 14 -7 12 -44 12 -44 0z"/>
<path d="M2267 6926 c-10 -8 -14 -16 -10 -19 5 -3 14 3 21 14 14 22 13 23 -11
5z"/>
<path d="M2217 6896 c-8 -8 -18 -12 -22 -8 -5 4 -5 1 -1 -6 6 -9 12 -9 29 -1
29 16 30 16 18 23 -5 3 -16 0 -24 -8z"/>
<path d="M1330 6870 c19 -13 30 -13 30 0 0 6 -10 10 -22 10 -19 0 -20 -2 -8
-10z"/>
<path d="M2225 6870 c-3 -5 -2 -10 4 -10 5 0 13 5 16 10 3 6 2 10 -4 10 -5 0
-13 -4 -16 -10z"/>
<path d="M2170 6840 c-32 -34 -43 -51 -37 -56 8 -8 37 21 37 36 0 6 10 14 22
19 15 5 17 9 7 13 -8 2 -21 -3 -29 -12z"/>
<path d="M2115 6840 c3 -5 8 -10 11 -10 2 0 4 5 4 10 0 6 -5 10 -11 10 -5 0
-7 -4 -4 -10z"/>
<path d="M2030 6806 c0 -19 5 -26 20 -26 17 0 19 3 10 19 -16 32 -30 34 -30 7z"/>
<path d="M2196 6811 c-4 -7 -5 -15 -2 -18 9 -9 19 4 14 18 -4 11 -6 11 -12 0z"/>
<path d="M2060 6739 c0 -5 5 -7 10 -4 6 3 10 8 10 11 0 2 -4 4 -10 4 -5 0 -10
-5 -10 -11z"/>
<path d="M1975 6670 c-8 -13 5 -13 25 0 13 8 13 10 -2 10 -9 0 -20 -4 -23 -10z"/>
<path d="M1951 6654 c0 -11 3 -14 6 -6 3 7 2 16 -1 19 -3 4 -6 -2 -5 -13z"/>
<path d="M1230 6610 c0 -5 5 -10 11 -10 5 0 7 5 4 10 -3 6 -8 10 -11 10 -2 0
-4 -4 -4 -10z"/>
<path d="M1930 6580 c-12 -8 -10 -10 8 -10 13 0 20 4 17 10 -7 12 -6 12 -25 0z"/>
<path d="M1950 6519 c0 -5 5 -7 10 -4 6 3 10 8 10 11 0 2 -4 4 -10 4 -5 0 -10
-5 -10 -11z"/>
<path d="M1815 6490 c-3 -5 -1 -10 4 -10 6 0 11 5 11 10 0 6 -2 10 -4 10 -3 0
-8 -4 -11 -10z"/>
<path d="M1565 6429 c-4 -6 -5 -12 -2 -15 7 -7 37 7 37 17 0 13 -27 11 -35 -2z"/>
<path d="M1505 6378 c-19 -18 -19 -20 -2 -29 18 -11 24 -39 7 -39 -5 0 -10 -7
-10 -15 0 -8 5 -15 10 -15 6 0 10 6 10 14 0 7 6 19 14 25 16 14 17 51 1 67 -7
7 -16 5 -30 -8z"/>
<path d="M1610 6390 c-1 -8 -2 -18 -1 -22 0 -5 -10 -8 -24 -8 -23 0 -24 -2
-13 -20 7 -11 15 -20 18 -20 10 0 32 60 27 72 -4 9 -6 9 -7 -2z"/>
<path d="M1691 6364 c0 -11 3 -14 6 -6 3 7 2 16 -1 19 -3 4 -6 -2 -5 -13z"/>
<path d="M1578 6279 c-10 -5 -18 -14 -18 -19 0 -14 28 -1 34 16 6 16 6 16 -16
3z"/>
<path d="M1515 6213 c-3 -10 -3 -14 1 -10 4 4 13 2 21 -4 17 -15 17 -1 -1 16
-12 12 -15 12 -21 -2z"/>
<path d="M1441 6206 c-16 -19 -11 -29 8 -17 7 5 12 14 9 21 -3 9 -8 7 -17 -4z"/>
<path d="M1460 6140 c0 -12 50 -33 58 -25 4 3 -4 8 -16 12 -12 3 -19 9 -16 14
3 5 -2 9 -10 9 -9 0 -16 -5 -16 -10z"/>
<path d="M1531 6134 c0 -11 3 -14 6 -6 3 7 2 16 -1 19 -3 4 -6 -2 -5 -13z"/>
<path d="M1475 6100 c-3 -5 1 -10 10 -10 9 0 13 5 10 10 -3 6 -8 10 -10 10 -2
0 -7 -4 -10 -10z"/>
<path d="M890 6056 c0 -9 5 -16 10 -16 6 0 10 4 10 9 0 6 -4 13 -10 16 -5 3
-10 -1 -10 -9z"/>
<path d="M1450 5980 c0 -5 5 -10 10 -10 6 0 10 5 10 10 0 6 -4 10 -10 10 -5 0
-10 -4 -10 -10z"/>
<path d="M1456 5916 c3 -8 1 -17 -5 -21 -18 -10 -13 -24 8 -22 11 0 18 4 15 8
-2 4 6 9 19 13 18 5 19 8 7 15 -8 5 -18 7 -22 5 -4 -3 -8 0 -8 5 0 6 -4 11
-10 11 -5 0 -7 -6 -4 -14z"/>
<path d="M1520 5890 c0 -5 5 -10 10 -10 6 0 10 5 10 10 0 6 -4 10 -10 10 -5 0
-10 -4 -10 -10z"/>
<path d="M790 5886 c0 -2 9 -6 20 -9 11 -3 20 -1 20 4 0 5 -9 9 -20 9 -11 0
-20 -2 -20 -4z"/>
<path d="M1385 5790 c3 -5 14 -10 23 -10 15 0 15 2 2 10 -20 13 -33 13 -25 0z"/>
<path d="M1380 5710 c0 -5 5 -10 11 -10 5 0 7 5 4 10 -3 6 -8 10 -11 10 -2 0
-4 -4 -4 -10z"/>
<path d="M1378 5655 c-4 -20 -3 -23 8 -14 16 13 19 39 5 39 -5 0 -11 -11 -13
-25z"/>
<path d="M750 5650 c0 -5 7 -10 16 -10 8 0 12 5 9 10 -3 6 -10 10 -16 10 -5 0
-9 -4 -9 -10z"/>
<path d="M1455 5650 c3 -5 8 -10 11 -10 2 0 4 5 4 10 0 6 -5 10 -11 10 -5 0
-7 -4 -4 -10z"/>
<path d="M670 5548 c0 -9 5 -20 10 -23 13 -8 13 5 0 25 -8 13 -10 13 -10 -2z"/>
<path d="M732 5520 c2 -15 -2 -24 -9 -23 -6 1 -16 -11 -22 -28 -6 -17 -14 -28
-19 -25 -5 3 -8 -5 -7 -17 3 -34 27 -31 70 7 33 29 36 36 22 42 -9 3 -17 14
-17 23 0 9 -5 23 -10 31 -8 12 -10 9 -8 -10z"/>
<path d="M1295 5450 c-6 -10 42 -46 51 -37 8 8 -4 25 -26 37 -12 6 -21 7 -25
0z"/>
<path d="M630 5435 c0 -8 7 -15 16 -15 14 0 14 3 4 15 -7 8 -14 15 -16 15 -2
0 -4 -7 -4 -15z"/>
<path d="M1298 5283 c7 -3 16 -2 19 1 4 3 -2 6 -13 5 -11 0 -14 -3 -6 -6z"/>
<path d="M1185 5239 c-11 -16 -1 -19 13 -3 7 8 8 14 3 14 -5 0 -13 -5 -16 -11z"/>
<path d="M588 5063 c7 -3 16 -2 19 1 4 3 -2 6 -13 5 -11 0 -14 -3 -6 -6z"/>
<path d="M552 5031 c7 -11 16 -17 20 -14 10 5 -10 33 -23 33 -5 0 -4 -9 3 -19z"/>
<path d="M1215 5040 c-3 -5 -1 -10 4 -10 6 0 11 5 11 10 0 6 -2 10 -4 10 -3 0
-8 -4 -11 -10z"/>
<path d="M480 4980 c0 -5 5 -10 11 -10 5 0 7 5 4 10 -3 6 -8 10 -11 10 -2 0
-4 -4 -4 -10z"/>
<path d="M1191 4941 c-12 -10 -21 -26 -21 -36 0 -17 2 -17 23 2 12 11 27 22
34 24 8 3 7 7 -2 16 -10 9 -18 8 -34 -6z"/>
<path d="M475 4900 c3 -5 1 -10 -4 -10 -6 0 -11 -5 -11 -11 0 -6 7 -8 16 -5
14 5 15 4 4 -9 -7 -8 -17 -12 -23 -8 -5 3 -7 1 -4 -4 9 -15 -19 -36 -35 -27
-10 5 -10 4 -1 -6 6 -7 10 -18 9 -24 -2 -6 -1 -8 1 -3 3 4 15 7 28 7 28 0 37
11 25 30 -6 10 -4 20 6 31 15 16 10 49 -8 49 -5 0 -6 -4 -3 -10z"/>
<path d="M435 4760 c-3 -5 -1 -10 4 -10 6 0 11 5 11 10 0 6 -2 10 -4 10 -3 0
-8 -4 -11 -10z"/>
<path d="M1193 4743 c-13 -2 -23 -9 -23 -14 0 -13 13 -11 36 6 10 8 17 14 14
13 -3 0 -15 -3 -27 -5z"/>
<path d="M337 4713 c-10 -9 -9 -23 2 -23 5 0 11 7 15 15 5 15 -5 20 -17 8z"/>
<path d="M1140 4690 c0 -5 5 -10 11 -10 5 0 7 5 4 10 -3 6 -8 10 -11 10 -2 0
-4 -4 -4 -10z"/>
<path d="M1165 4660 c-3 -5 -1 -10 4 -10 6 0 11 5 11 10 0 6 -2 10 -4 10 -3 0
-8 -4 -11 -10z"/>
<path d="M1225 4660 c-3 -5 -1 -10 4 -10 6 0 11 5 11 10 0 6 -2 10 -4 10 -3 0
-8 -4 -11 -10z"/>
<path d="M308 4643 c-10 -2 -18 -12 -18 -21 0 -15 2 -15 10 -2 8 13 13 13 31
2 11 -7 22 -12 23 -10 1 2 8 11 15 21 12 15 11 17 -15 16 -16 -1 -37 -3 -46
-6z"/>
<path d="M350 4585 c0 -8 -6 -15 -14 -15 -9 0 -13 -10 -12 -25 0 -16 7 -25 18
-25 21 0 32 16 21 33 -4 6 -6 20 -5 30 2 9 1 17 -2 17 -3 0 -6 -7 -6 -15z"/>
<path d="M390 4509 c0 -5 5 -7 10 -4 6 3 10 8 10 11 0 2 -4 4 -10 4 -5 0 -10
-5 -10 -11z"/>
<path d="M230 4490 c0 -5 5 -10 10 -10 6 0 10 5 10 10 0 6 -4 10 -10 10 -5 0
-10 -4 -10 -10z"/>
<path d="M295 4484 c9 -9 18 -14 21 -11 9 9 -6 27 -22 27 -13 0 -13 -2 1 -16z"/>
<path d="M317 4404 c-14 -14 -7 -52 10 -58 15 -6 14 -9 -7 -19 -14 -7 -25 -20
-24 -30 0 -9 1 -33 2 -52 1 -19 6 -35 11 -35 14 0 20 37 8 49 -8 8 -6 11 7 11
13 0 17 5 13 20 -3 11 -1 23 4 26 12 7 6 71 -8 85 -5 5 -12 6 -16 3z"/>
<path d="M1120 4400 c0 -5 5 -10 10 -10 6 0 10 5 10 10 0 6 -4 10 -10 10 -5 0
-10 -4 -10 -10z"/>
<path d="M1127 4289 c7 -7 15 -10 18 -7 3 3 -2 9 -12 12 -14 6 -15 5 -6 -5z"/>
<path d="M1180 4286 c0 -8 5 -18 10 -21 6 -3 10 3 10 14 0 12 -4 21 -10 21 -5
0 -10 -6 -10 -14z"/>
<path d="M245 4261 c-7 -24 2 -48 22 -55 21 -9 28 0 14 18 -6 8 -11 18 -10 22
6 35 -15 47 -26 15z"/>
<path d="M1091 4261 c-7 -5 -11 -15 -9 -22 3 -10 8 -7 17 9 13 24 12 26 -8 13z"/>
<path d="M245 4190 c3 -4 14 -10 25 -13 11 -3 18 -2 15 3 -3 4 -14 10 -25 13
-11 3 -18 2 -15 -3z"/>
<path d="M1087 4193 c-4 -3 -7 -11 -7 -17 0 -6 5 -5 12 2 6 6 9 14 7 17 -3 3
-9 2 -12 -2z"/>
<path d="M332 4158 c17 -31 31 -39 40 -25 9 14 11 33 2 24 -4 -3 -13 0 -21 8
-22 23 -35 18 -21 -7z"/>
<path d="M290 4135 c0 -8 5 -15 10 -15 6 0 10 7 10 15 0 8 -4 15 -10 15 -5 0
-10 -7 -10 -15z"/>
<path d="M1130 4135 c0 -8 5 -15 10 -15 6 0 10 7 10 15 0 8 -4 15 -10 15 -5 0
-10 -7 -10 -15z"/>
<path d="M301 4111 c-9 -6 -11 -16 -6 -27 6 -16 8 -16 13 -4 2 8 9 21 15 28
11 14 -1 16 -22 3z"/>
<path d="M250 4090 c0 -6 7 -10 15 -10 8 0 15 2 15 4 0 2 -7 6 -15 10 -8 3
-15 1 -15 -4z"/>
<path d="M1115 4090 c3 -5 8 -10 11 -10 2 0 4 5 4 10 0 6 -5 10 -11 10 -5 0
-7 -4 -4 -10z"/>
<path d="M265 4050 c-3 -5 1 -10 9 -10 9 0 16 5 16 10 0 6 -4 10 -9 10 -6 0
-13 -4 -16 -10z"/>
<path d="M384 4015 c11 -8 22 -12 25 -9 6 6 -19 24 -34 24 -5 -1 -1 -7 9 -15z"/>
<path d="M281 3999 c9 -17 13 -19 20 -8 5 8 3 16 -4 21 -22 14 -28 8 -16 -13z"/>
<path d="M1130 4010 c0 -5 5 -10 10 -10 6 0 10 5 10 10 0 6 -4 10 -10 10 -5 0
-10 -4 -10 -10z"/>
<path d="M1177 3933 c-12 -12 -7 -22 8 -17 8 4 15 10 15 15 0 11 -14 12 -23 2z"/>
<path d="M1170 3820 c0 -5 5 -10 11 -10 5 0 7 5 4 10 -3 6 -8 10 -11 10 -2 0
-4 -4 -4 -10z"/>
<path d="M306 3813 c-14 -4 -17 -11 -12 -35 3 -17 6 -38 6 -47 0 -14 2 -14 9
-1 6 8 7 18 5 22 -5 8 10 12 34 9 14 -2 14 5 2 34 -5 11 -9 14 -9 8 -1 -7 -5
-13 -11 -13 -5 0 -7 7 -4 15 4 8 5 14 3 14 -2 -1 -12 -3 -23 -6z"/>
<path d="M1117 3799 c-17 -10 -23 -29 -9 -29 5 0 16 6 27 13 22 17 7 29 -18
16z"/>
<path d="M1060 3790 c0 -5 5 -10 10 -10 6 0 10 5 10 10 0 6 -4 10 -10 10 -5 0
-10 -4 -10 -10z"/>
<path d="M439 3777 c0 -7 -2 -20 -4 -29 -4 -23 12 -33 29 -19 7 6 16 8 19 4 4
-3 7 -3 7 2 0 13 -50 55 -51 42z"/>
<path d="M380 3753 c0 -13 5 -23 10 -23 13 0 13 11 0 30 -8 12 -10 11 -10 -7z"/>
<path d="M1040 3740 c-13 -8 -12 -10 3 -10 9 0 17 5 17 10 0 12 -1 12 -20 0z"/>
<path d="M345 3719 c-4 -6 -5 -13 -2 -16 7 -7 27 6 27 18 0 12 -17 12 -25 -2z"/>
<path d="M458 3701 c-16 -6 -16 -9 6 -35 15 -20 25 -25 30 -18 4 7 2 12 -4 12
-7 0 -9 8 -5 19 7 23 -3 31 -27 22z"/>
<path d="M321 3684 c0 -11 3 -14 6 -6 3 7 2 16 -1 19 -3 4 -6 -2 -5 -13z"/>
<path d="M1240 3693 c0 -10 28 -32 34 -26 11 11 6 21 -14 26 -11 3 -20 3 -20
0z"/>
<path d="M1080 3659 c0 -5 5 -7 10 -4 6 3 10 8 10 11 0 2 -4 4 -10 4 -5 0 -10
-5 -10 -11z"/>
<path d="M1147 3663 c-12 -11 -8 -23 8 -23 8 0 15 7 15 15 0 16 -12 20 -23 8z"/>
<path d="M1135 3622 c-12 -8 -13 -42 -2 -42 4 0 12 0 17 0 12 0 14 37 2 44 -4
2 -12 2 -17 -2z"/>
<path d="M1291 3464 c0 -11 3 -14 6 -6 3 7 2 16 -1 19 -3 4 -6 -2 -5 -13z"/>
<path d="M1331 3454 c0 -11 3 -14 6 -6 3 7 2 16 -1 19 -3 4 -6 -2 -5 -13z"/>
<path d="M1380 3380 c0 -5 5 -10 11 -10 5 0 7 5 4 10 -3 6 -8 10 -11 10 -2 0
-4 -4 -4 -10z"/>
<path d="M1440 3330 c0 -6 -5 -8 -11 -4 -7 4 -10 1 -7 -6 2 -8 10 -16 18 -18
7 -3 10 0 6 6 -3 6 -1 12 6 14 9 3 9 6 0 12 -7 4 -12 2 -12 -4z"/>
<path d="M1320 3195 c0 -8 4 -15 10 -15 5 0 7 7 4 15 -4 8 -8 15 -10 15 -2 0
-4 -7 -4 -15z"/>
<path d="M1320 3100 c0 -5 5 -10 11 -10 5 0 7 5 4 10 -3 6 -8 10 -11 10 -2 0
-4 -4 -4 -10z"/>
<path d="M1261 3044 c0 -11 3 -14 6 -6 3 7 2 16 -1 19 -3 4 -6 -2 -5 -13z"/>
<path d="M1346 2991 c-4 -5 -2 -12 3 -15 5 -4 12 -2 15 3 4 5 2 12 -3 15 -5 4
-12 2 -15 -3z"/>
<path d="M1307 2941 c3 -12 1 -21 -5 -21 -6 0 -12 -10 -14 -22 -2 -13 -9 -22
-16 -20 -6 1 -12 -2 -12 -7 0 -6 9 -9 20 -8 11 1 20 5 20 9 0 4 10 8 23 8 18
0 19 2 7 10 -13 8 -11 11 8 16 22 6 31 24 11 24 -5 0 -7 5 -3 12 4 7 3 8 -5 4
-6 -4 -18 -3 -26 4 -11 9 -12 7 -8 -9z"/>
<path d="M1358 2883 c7 -3 16 -2 19 1 4 3 -2 6 -13 5 -11 0 -14 -3 -6 -6z"/>
<path d="M1317 2864 c-6 -10 9 -42 16 -34 3 3 1 14 -3 24 -3 11 -9 15 -13 10z"/>
<path d="M1410 2833 c0 -5 11 -21 25 -37 14 -16 25 -33 25 -38 0 -5 6 -3 14 4
11 10 7 18 -21 45 -34 34 -43 39 -43 26z"/>
<path d="M1530 2707 c0 -8 7 -17 15 -21 8 -3 15 -3 15 0 0 3 -7 12 -15 20 -13
13 -15 13 -15 1z"/>
<path d="M1685 2370 c-3 -5 -1 -10 4 -10 6 0 11 5 11 10 0 6 -2 10 -4 10 -3 0
-8 -4 -11 -10z"/>
<path d="M1645 2330 c4 -6 11 -8 16 -5 14 9 11 15 -7 15 -8 0 -12 -5 -9 -10z"/>
<path d="M1690 2329 c0 -5 5 -7 10 -4 6 3 10 8 10 11 0 2 -4 4 -10 4 -5 0 -10
-5 -10 -11z"/>
<path d="M1735 2280 c27 -12 43 -12 25 0 -8 5 -22 9 -30 9 -10 0 -8 -3 5 -9z"/>
<path d="M1686 2176 c5 -13 44 -30 44 -19 0 7 -33 32 -42 33 -4 0 -5 -6 -2
-14z"/>
<path d="M1770 2179 c0 -5 -4 -7 -10 -4 -5 3 -10 4 -10 1 0 -3 9 -10 20 -16
17 -9 20 -8 20 10 0 11 -4 20 -10 20 -5 0 -10 -5 -10 -11z"/>
<path d="M1870 2175 c-8 -9 -8 -15 -2 -15 12 0 26 19 19 26 -2 2 -10 -2 -17
-11z"/>
<path d="M1670 2125 c0 -8 9 -15 20 -15 12 0 20 7 20 18 0 14 -2 15 -10 2 -6
-10 -10 -11 -10 -2 0 6 -4 12 -10 12 -5 0 -10 -7 -10 -15z"/>
<path d="M1760 2130 c0 -5 5 -10 10 -10 6 0 10 5 10 10 0 6 -4 10 -10 10 -5 0
-10 -4 -10 -10z"/>
<path d="M1903 2122 c-9 -15 -7 -18 8 -18 21 0 23 5 11 23 -6 9 -11 8 -19 -5z"/>
<path d="M1745 2100 c-3 -5 -1 -10 4 -10 6 0 11 5 11 10 0 6 -2 10 -4 10 -3 0
-8 -4 -11 -10z"/>
<path d="M1825 2090 c-3 -5 -1 -10 4 -10 6 0 11 5 11 10 0 6 -2 10 -4 10 -3 0
-8 -4 -11 -10z"/>
<path d="M1855 2090 c-3 -5 -1 -10 4 -10 6 0 11 5 11 10 0 6 -2 10 -4 10 -3 0
-8 -4 -11 -10z"/>
<path d="M1905 2051 c19 -22 19 -23 1 -37 -11 -7 -17 -17 -13 -20 8 -8 37 21
37 38 0 7 -10 19 -22 27 l-23 14 20 -22z"/>
<path d="M1955 2039 c-10 -15 3 -25 16 -12 7 7 7 13 1 17 -6 3 -14 1 -17 -5z"/>
<path d="M2142 2026 c7 -8 15 -12 17 -11 5 6 -10 25 -20 25 -5 0 -4 -6 3 -14z"/>
<path d="M2055 1990 c-3 -5 -1 -10 4 -10 6 0 11 5 11 10 0 6 -2 10 -4 10 -3 0
-8 -4 -11 -10z"/>
<path d="M1945 1950 c-3 -6 1 -7 9 -4 18 7 21 14 7 14 -6 0 -13 -4 -16 -10z"/>
<path d="M2260 1890 c0 -5 5 -10 10 -10 6 0 10 5 10 10 0 6 -4 10 -10 10 -5 0
-10 -4 -10 -10z"/>
<path d="M2299 1855 c-1 -3 -2 -10 -3 -15 0 -6 -8 -15 -16 -20 -20 -13 -5 -24
16 -12 18 10 28 52 12 52 -4 0 -9 -2 -9 -5z"/>
<path d="M2220 1818 c0 -8 7 -15 15 -15 18 0 15 19 -3 25 -7 2 -12 -3 -12 -10z"/>
<path d="M2300 1779 c0 -5 5 -7 10 -4 6 3 10 8 10 11 0 2 -4 4 -10 4 -5 0 -10
-5 -10 -11z"/>
<path d="M2402 1762 c-7 -5 -10 -16 -7 -24 8 -20 47 -11 43 10 -4 19 -19 24
-36 14z m28 -12 c0 -5 -5 -10 -11 -10 -5 0 -7 5 -4 10 3 6 8 10 11 10 2 0 4
-4 4 -10z"/>
<path d="M2496 1754 c-8 -20 -4 -25 11 -16 7 4 9 13 4 21 -6 10 -10 9 -15 -5z"/>
<path d="M2280 1750 c0 -5 12 -10 28 -9 24 0 25 1 7 9 -27 12 -35 12 -35 0z"/>
<path d="M2423 1710 c4 -8 10 -23 13 -32 7 -21 20 -23 30 -6 4 6 2 14 -4 16
-7 2 -20 11 -29 20 -12 13 -15 13 -10 2z"/>
<path d="M2620 1670 c0 -5 7 -10 16 -10 8 0 12 5 9 10 -3 6 -10 10 -16 10 -5
0 -9 -4 -9 -10z"/>
<path d="M2540 1631 c0 -5 7 -11 15 -15 9 -3 15 0 15 9 0 8 -7 15 -15 15 -8 0
-15 -4 -15 -9z"/>
<path d="M6710 1630 c0 -5 5 -10 10 -10 6 0 10 5 10 10 0 6 -4 10 -10 10 -5 0
-10 -4 -10 -10z"/>
<path d="M2800 1620 c0 -5 5 -10 11 -10 5 0 7 5 4 10 -3 6 -8 10 -11 10 -2 0
-4 -4 -4 -10z"/>
<path d="M2655 1608 c-4 -10 -13 -18 -21 -18 -8 0 -14 -4 -14 -10 0 -5 9 -10
20 -10 11 0 20 -5 20 -11 0 -5 -4 -7 -10 -4 -5 3 -16 0 -23 -7 -12 -10 -8 -15
21 -25 29 -10 40 -9 64 3 37 19 36 43 -3 51 -20 4 -28 10 -25 20 3 8 2 12 -3
8 -5 -3 -11 1 -14 7 -3 9 -7 7 -12 -4z m65 -47 c2 -1 -1 -6 -7 -12 -13 -13
-47 -4 -39 10 4 5 14 8 24 6 9 -2 19 -4 22 -4z"/>
<path d="M2715 1600 c3 -5 8 -10 11 -10 2 0 4 5 4 10 0 6 -5 10 -11 10 -5 0
-7 -4 -4 -10z"/>
<path d="M2885 1570 c3 -5 8 -10 11 -10 2 0 4 5 4 10 0 6 -5 10 -11 10 -5 0
-7 -4 -4 -10z"/>
<path d="M2861 1484 c-12 -14 -11 -16 4 -12 10 1 20 9 23 16 5 17 -10 15 -27
-4z"/>
<path d="M2985 1470 c-3 -5 1 -10 10 -10 9 0 13 5 10 10 -3 6 -8 10 -10 10 -2
0 -7 -4 -10 -10z"/>
<path d="M3140 1440 c0 -5 7 -10 15 -10 8 0 15 5 15 10 0 6 -7 10 -15 10 -8 0
-15 -4 -15 -10z"/>
<path d="M3305 1440 c3 -5 8 -10 11 -10 2 0 4 5 4 10 0 6 -5 10 -11 10 -5 0
-7 -4 -4 -10z"/>
<path d="M3205 1390 c3 -5 8 -10 11 -10 2 0 4 5 4 10 0 6 -5 10 -11 10 -5 0
-7 -4 -4 -10z"/>
<path d="M2986 1375 c-3 -8 -1 -15 4 -15 6 0 10 7 10 15 0 8 -2 15 -4 15 -2 0
-6 -7 -10 -15z"/>
<path d="M3228 1374 c-3 -3 -4 -14 -1 -25 6 -22 33 -26 33 -5 0 16 -24 39 -32
30z"/>
<path d="M6040 1321 c0 -23 -6 -30 -25 -35 -14 -4 -23 -11 -20 -15 8 -15 44 0
50 20 4 10 10 19 15 19 4 0 11 7 14 16 3 8 2 12 -4 9 -6 -3 -10 -1 -10 4 0 6
-4 11 -10 11 -5 0 -10 -13 -10 -29z"/>
<path d="M3655 1330 c-3 -5 -1 -10 4 -10 6 0 11 5 11 10 0 6 -2 10 -4 10 -3 0
-8 -4 -11 -10z"/>
<path d="M3195 1310 c3 -5 10 -10 16 -10 5 0 9 5 9 10 0 6 -7 10 -16 10 -8 0
-12 -4 -9 -10z"/>
<path d="M3395 1290 c3 -5 8 -10 11 -10 2 0 4 5 4 10 0 6 -5 10 -11 10 -5 0
-7 -4 -4 -10z"/>
<path d="M3430 1275 c7 -9 15 -13 17 -11 7 7 -7 26 -19 26 -6 0 -6 -6 2 -15z"/>
<path d="M5947 1283 c-11 -10 -8 -20 8 -27 10 -4 15 1 15 14 0 20 -11 26 -23
13z"/>
<path d="M5910 1255 c0 -9 -5 -13 -11 -9 -7 4 -10 1 -7 -7 7 -22 43 -17 43 5
0 11 -6 21 -12 24 -7 2 -13 -4 -13 -13z"/>
<path d="M3520 1250 c-9 -6 -10 -10 -3 -10 6 0 15 5 18 10 8 12 4 12 -15 0z"/>
<path d="M3565 1250 c24 -11 51 -13 41 -3 -4 4 -19 8 -34 10 -23 2 -24 1 -7
-7z"/>
<path d="M3810 1250 c-12 -8 -10 -10 8 -10 13 0 20 4 17 10 -7 12 -6 12 -25 0z"/>
<path d="M3950 1250 c0 -5 5 -10 11 -10 5 0 7 5 4 10 -3 6 -8 10 -11 10 -2 0
-4 -4 -4 -10z"/>
<path d="M3675 1240 c-3 -5 -13 -6 -23 -3 -13 4 -13 3 3 -10 17 -13 21 -13 32
2 9 11 12 12 13 3 0 -7 5 -10 11 -6 8 4 7 9 -2 15 -18 11 -26 11 -34 -1z"/>
<path d="M5502 1218 c2 -6 10 -14 16 -16 7 -2 10 2 6 12 -7 18 -28 22 -22 4z"/>
<path d="M3986 1200 c-18 -6 -18 -7 -2 -13 25 -10 46 -9 46 2 0 13 -22 19 -44
11z"/>
<path d="M3570 1180 c-13 -8 -12 -10 3 -10 9 0 17 -7 17 -15 0 -8 5 -15 10
-15 14 0 13 13 -2 33 -9 12 -17 14 -28 7z"/>
<path d="M3646 1182 c-9 -15 5 -48 27 -61 12 -8 19 -10 15 -6 -4 4 3 16 15 25
12 10 18 22 14 27 -5 4 -13 0 -18 -10 -14 -25 -43 -22 -36 3 5 20 -7 37 -17
22z"/>
<path d="M5149 1180 c-1 -3 -1 -8 0 -12 0 -5 -5 -8 -11 -8 -7 0 -5 -5 6 -11
10 -6 21 -7 25 -3 3 5 14 10 25 12 13 3 17 -1 13 -12 -8 -21 5 -27 27 -11 18
13 14 41 -5 30 -5 -4 -9 1 -9 9 0 10 -10 14 -35 13 -19 -1 -35 -4 -36 -7z"/>
<path d="M4236 1172 c-2 -4 -1 -14 5 -22 7 -12 9 -10 9 8 0 23 -5 28 -14 14z"/>
<path d="M4186 1155 c4 -8 8 -15 10 -15 2 0 4 7 4 15 0 8 -4 15 -10 15 -5 0
-7 -7 -4 -15z"/>
<path d="M4610 1139 c-13 -24 -4 -41 10 -19 10 16 13 40 5 40 -2 0 -9 -9 -15
-21z"/>
<path d="M5101 1134 c0 -11 3 -14 6 -6 3 7 2 16 -1 19 -3 4 -6 -2 -5 -13z"/>
<path d="M3785 1131 c-3 -5 -1 -12 5 -16 12 -7 30 2 30 16 0 12 -27 12 -35 0z"/>
<path d="M4497 1127 c-6 -16 16 -26 46 -19 20 4 23 22 3 22 -8 0 -21 3 -29 6
-8 3 -17 -1 -20 -9z"/>
<path d="M5575 1130 c-8 -13 -1 -24 14 -19 6 3 7 10 2 18 -6 10 -10 10 -16 1z"/>
<path d="M3613 1123 c-7 -2 -13 -9 -13 -15 0 -6 6 -8 14 -5 7 3 19 0 26 -6 10
-10 10 -7 1 11 -6 12 -13 22 -14 21 -1 0 -8 -3 -14 -6z"/>
<path d="M5541 1114 c0 -11 3 -14 6 -6 3 7 2 16 -1 19 -3 4 -6 -2 -5 -13z"/>
<path d="M4427 1114 c-8 -8 1 -24 14 -24 5 0 9 7 9 15 0 15 -12 20 -23 9z"/>
<path d="M5146 1111 c-4 -7 -5 -15 -2 -18 9 -9 19 4 14 18 -4 11 -6 11 -12 0z"/>
<path d="M3706 1085 c-3 -8 -1 -15 3 -15 5 0 11 7 15 15 3 8 1 15 -3 15 -5 0
-11 -7 -15 -15z"/>
<path d="M4251 1074 c-21 -24 -3 -30 19 -6 13 14 16 22 8 22 -7 -1 -19 -8 -27
-16z"/>
<path d="M3675 1070 c3 -5 8 -10 11 -10 2 0 4 5 4 10 0 6 -5 10 -11 10 -5 0
-7 -4 -4 -10z"/>
</g>
</svg>
